<?xml version="1.0" encoding="UTF-8"?>
<svg width="50px" height="33px" viewBox="0 0 50 33" version="1.1" xmlns="http://www.w3.org/2000/svg" xmlns:xlink="http://www.w3.org/1999/xlink">
    <!-- Generator: Sketch 45.2 (43514) - http://www.bohemiancoding.com/sketch -->
    <title>Group 9 Copy</title>
    <desc>Created with Sketch.</desc>
    <defs></defs>
    <g id="Loyalty-App" stroke="none" stroke-width="1" fill="none" fill-rule="evenodd" opacity="0.5">
        <g id="hm_product" transform="translate(-290.000000, -353.000000)" fill="#FFFFFF">
            <g id="Group-9-Copy" transform="translate(315.000000, 369.500000) rotate(-180.000000) translate(-315.000000, -369.500000) translate(290.000000, 353.000000)">
                <path d="M1.03448276,4.9137931 C1.03448276,2.79310345 2.79310345,1.03448276 4.9137931,1.03448276 L9.4137931,1.03448276 C11.5344828,1.03448276 13.2931034,2.79310345 13.2931034,4.9137931 L13.2931034,9.4137931 C13.2931034,11.5344828 11.5344828,13.2931034 9.4137931,13.2931034 L4.9137931,13.2931034 C2.79310345,13.2931034 1.03448276,11.5344828 1.03448276,9.4137931 C1.03448276,9.4137931 1.03448276,4.9137931 1.03448276,4.9137931 M4.9137931,14.3275862 L9.4137931,14.3275862 C12.1034483,14.3275862 14.3275862,12.1034483 14.3275862,9.4137931 L14.3275862,4.9137931 C14.3275862,2.22413793 12.1034483,-5.68434189e-14 9.4137931,-5.68434189e-14 L4.9137931,-5.68434189e-14 C2.22413793,-5.68434189e-14 0,2.22413793 0,4.9137931 L0,9.4137931 C0,12.1551724 2.22413793,14.3275862 4.9137931,14.3275862" id="Fill-1"></path>
                <path d="M6.32758621,5.03448276 L8.18965517,5.03448276 C8.55172414,5.03448276 8.86206897,5.18965517 9.12068966,5.39655172 C9.06896552,5.44827586 8.96551724,5.60344828 8.75862069,5.70689655 C8.39655172,5.9137931 7.82758621,6.12068966 7.31034483,5.96551724 C6.37931034,5.70689655 5.60344828,5.81034483 5.03448276,6.06896552 C5.18965517,5.5 5.70689655,5.03448276 6.32758621,5.03448276 M8.24137931,9.53448276 L6.37931034,9.53448276 C6.06896552,9.53448276 5.81034483,9.43103448 5.55172414,9.22413793 C5.9137931,8.96551724 6.63793103,8.5 7.46551724,8.75862069 C8.18965517,8.96551724 8.9137931,8.9137931 9.48275862,8.65517241 C9.27586207,9.17241379 8.81034483,9.53448276 8.24137931,9.53448276 M5.03448276,8.24137931 L5.03448276,7.4137931 C5.03448276,7.36206897 5.0862069,7.25862069 5.29310345,7.10344828 C5.44827586,7 6.06896552,6.63793103 7,6.94827586 C7.87931034,7.20689655 8.86206897,6.89655172 9.53448276,6.43103448 L9.53448276,7.10344828 C9.53448276,7.31034483 9.37931034,7.46551724 9.27586207,7.56896552 C8.9137931,7.82758621 8.29310345,7.93103448 7.72413793,7.77586207 C6.53448276,7.46551724 5.60344828,7.93103448 5.03448276,8.29310345 C5.03448276,8.29310345 5.03448276,8.24137931 5.03448276,8.24137931 M6.32758621,10.5689655 L8.18965517,10.5689655 C9.48275862,10.5689655 10.5172414,9.53448276 10.5172414,8.18965517 L10.5172414,6.32758621 C10.5172414,5.81034483 10.3103448,5.29310345 10.0517241,4.93103448 C10,4.87931034 9.94827586,4.82758621 9.89655172,4.77586207 C9.48275862,4.31034483 8.86206897,4 8.18965517,4 L6.32758621,4 C5.03448276,4 4,5.03448276 4,6.37931034 L4,8.24137931 C4,9.53448276 5.03448276,10.5689655 6.32758621,10.5689655" id="Fill-3"></path>
                <path d="M18.7931034,4.9137931 C18.7931034,2.79310345 20.5517241,1.03448276 22.6724138,1.03448276 L27.1724138,1.03448276 C29.2931034,1.03448276 31.0517241,2.79310345 31.0517241,4.9137931 L31.0517241,9.4137931 C31.0517241,11.5344828 29.2931034,13.2931034 27.1724138,13.2931034 L22.6724138,13.2931034 C20.5517241,13.2931034 18.7931034,11.5344828 18.7931034,9.4137931 L18.7931034,4.9137931 Z M22.6724138,14.3275862 L27.1724138,14.3275862 C29.862069,14.3275862 32.0862069,12.1034483 32.0862069,9.4137931 L32.0862069,4.9137931 C32.0862069,2.22413793 29.862069,-5.68434189e-14 27.1724138,-5.68434189e-14 L22.6724138,-5.68434189e-14 C19.9827586,-5.68434189e-14 17.7586207,2.22413793 17.7586207,4.9137931 L17.7586207,9.4137931 C17.7586207,12.1551724 19.9310345,14.3275862 22.6724138,14.3275862 L22.6724138,14.3275862 Z" id="Fill-5"></path>
                <path d="M24.7931034,4.9137931 C24.8448276,4.9137931 24.9482759,4.96551724 25.1034483,5.17241379 C25.2068966,5.32758621 25.5689655,5.94827586 25.2586207,6.87931034 C25,7.75862069 25.3103448,8.74137931 25.7758621,9.4137931 L25.1034483,9.4137931 C24.8965517,9.4137931 24.7413793,9.25862069 24.637931,9.15517241 C24.3793103,8.79310345 24.2758621,8.17241379 24.4310345,7.60344828 C24.7413793,6.4137931 24.2758621,5.48275862 23.9137931,4.9137931 L24.0172414,4.9137931 L24.7931034,4.9137931 Z M27.1724138,6.20689655 L27.1724138,8.06896552 C27.1724138,8.43103448 27.0172414,8.74137931 26.8103448,9 C26.7586207,8.94827586 26.6034483,8.84482759 26.5,8.63793103 C26.2931034,8.27586207 26.0862069,7.70689655 26.2413793,7.18965517 C26.5,6.25862069 26.3965517,5.48275862 26.137931,4.9137931 C26.7068966,5.06896552 27.1724138,5.5862069 27.1724138,6.20689655 L27.1724138,6.20689655 Z M22.6724138,8.12068966 L22.6724138,6.25862069 C22.6724138,5.94827586 22.7758621,5.68965517 22.9827586,5.43103448 C23.2413793,5.79310345 23.7068966,6.51724138 23.4482759,7.34482759 C23.2413793,8.06896552 23.2931034,8.79310345 23.5517241,9.36206897 C23.0344828,9.15517241 22.6724138,8.68965517 22.6724138,8.12068966 L22.6724138,8.12068966 Z M23.9655172,10.4482759 L25.8275862,10.4482759 C26.3448276,10.4482759 26.862069,10.2413793 27.2241379,9.98275862 C27.2758621,9.93103448 27.3275862,9.87931034 27.3793103,9.82758621 C27.8448276,9.4137931 28.1551724,8.79310345 28.1551724,8.12068966 L28.1551724,6.25862069 C28.1551724,4.96551724 27.1206897,3.87931034 25.8275862,3.87931034 L23.9655172,3.87931034 C22.6724138,3.87931034 21.637931,4.9137931 21.637931,6.25862069 L21.637931,8.12068966 C21.637931,9.4137931 22.6724138,10.4482759 23.9655172,10.4482759 L23.9655172,10.4482759 Z" id="Fill-7"></path>
                <path d="M36.4482759,4.9137931 C36.4482759,2.79310345 38.2068966,1.03448276 40.3275862,1.03448276 L44.8275862,1.03448276 C46.9482759,1.03448276 48.7068966,2.79310345 48.7068966,4.9137931 L48.7068966,9.4137931 C48.7068966,11.5344828 46.9482759,13.2931034 44.8275862,13.2931034 L40.3275862,13.2931034 C38.2068966,13.2931034 36.4482759,11.5344828 36.4482759,9.4137931 L36.4482759,4.9137931 Z M40.3275862,14.3275862 L44.8275862,14.3275862 C47.5172414,14.3275862 49.7413793,12.1034483 49.7413793,9.4137931 L49.7413793,4.9137931 C49.7413793,2.22413793 47.5172414,-5.68434189e-14 44.8275862,-5.68434189e-14 L40.3275862,-5.68434189e-14 C37.637931,-5.68434189e-14 35.4137931,2.22413793 35.4137931,4.9137931 L35.4137931,9.4137931 C35.4137931,12.1551724 37.5862069,14.3275862 40.3275862,14.3275862 L40.3275862,14.3275862 Z" id="Fill-9"></path>
                <path d="M41.6206897,4.9137931 L43.4827586,4.9137931 C43.8448276,4.9137931 44.1551724,5.06896552 44.4137931,5.27586207 C44.362069,5.32758621 44.2586207,5.48275862 44.0517241,5.5862069 C43.6896552,5.79310345 43.1206897,6 42.6034483,5.84482759 C41.6724138,5.5862069 40.8965517,5.68965517 40.3275862,5.94827586 C40.4310345,5.37931034 41,4.9137931 41.6206897,4.9137931 M43.4827586,9.4137931 L41.6206897,9.4137931 C41.3103448,9.4137931 41.0517241,9.31034483 40.7931034,9.10344828 C41.1551724,8.84482759 41.8793103,8.37931034 42.7068966,8.63793103 C43.4310345,8.84482759 44.1551724,8.79310345 44.7241379,8.53448276 C44.5689655,9.05172414 44.0517241,9.4137931 43.4827586,9.4137931 M40.3275862,8.12068966 L40.3275862,7.29310345 C40.3275862,7.24137931 40.3793103,7.13793103 40.5862069,6.98275862 C40.7413793,6.87931034 41.362069,6.51724138 42.2931034,6.82758621 C43.1724138,7.0862069 44.1551724,6.77586207 44.8275862,6.31034483 L44.8275862,6.98275862 C44.8275862,7.18965517 44.6724138,7.34482759 44.5689655,7.44827586 C44.2068966,7.70689655 43.5862069,7.81034483 43.0172414,7.65517241 C41.8275862,7.34482759 40.8965517,7.81034483 40.3275862,8.17241379 C40.3275862,8.17241379 40.3275862,8.12068966 40.3275862,8.12068966 M41.6206897,10.4482759 L43.4827586,10.4482759 C44.7758621,10.4482759 45.8103448,9.4137931 45.8103448,8.06896552 L45.8103448,6.20689655 C45.8103448,5.68965517 45.6034483,5.17241379 45.3448276,4.81034483 C45.2931034,4.75862069 45.2413793,4.70689655 45.1896552,4.65517241 C44.7758621,4.18965517 44.1551724,3.87931034 43.4827586,3.87931034 L41.6206897,3.87931034 C40.3275862,3.87931034 39.2931034,4.9137931 39.2931034,6.25862069 L39.2931034,8.12068966 C39.2931034,9.4137931 40.3275862,10.4482759 41.6206897,10.4482759" id="Fill-11"></path>
                <path d="M1.03448276,22.9137931 C1.03448276,20.7931034 2.79310345,19.0344828 4.9137931,19.0344828 L9.4137931,19.0344828 C11.5344828,19.0344828 13.2931034,20.7931034 13.2931034,22.9137931 L13.2931034,27.4137931 C13.2931034,29.5344828 11.5344828,31.2931034 9.4137931,31.2931034 L4.9137931,31.2931034 C2.79310345,31.2931034 1.03448276,29.5344828 1.03448276,27.4137931 C1.03448276,27.4137931 1.03448276,22.9137931 1.03448276,22.9137931 M4.9137931,32.3275862 L9.4137931,32.3275862 C12.1034483,32.3275862 14.3275862,30.1034483 14.3275862,27.4137931 L14.3275862,22.9137931 C14.3275862,20.2241379 12.1034483,18 9.4137931,18 L4.9137931,18 C2.22413793,18 0,20.2241379 0,22.9137931 L0,27.4137931 C0,30.1034483 2.22413793,32.3275862 4.9137931,32.3275862" id="Fill-13"></path>
                <path d="M7.15517241,22.9827586 C7.20689655,22.9827586 7.31034483,23.0344828 7.46551724,23.2413793 C7.56896552,23.3965517 7.93103448,24.0172414 7.62068966,24.9482759 C7.36206897,25.8275862 7.67241379,26.8103448 8.13793103,27.4827586 L7.46551724,27.4827586 C7.25862069,27.4827586 7.10344828,27.3275862 7,27.2241379 C6.74137931,26.862069 6.63793103,26.2413793 6.79310345,25.6724138 C7.10344828,24.4827586 6.63793103,23.5517241 6.27586207,22.9827586 L6.37931034,22.9827586 L7.15517241,22.9827586 Z M9.53448276,24.3275862 L9.53448276,26.1896552 C9.53448276,26.5517241 9.37931034,26.862069 9.17241379,27.1206897 C9.12068966,27.0689655 8.96551724,26.9655172 8.86206897,26.7586207 C8.65517241,26.3965517 8.44827586,25.8275862 8.60344828,25.3103448 C8.86206897,24.3793103 8.75862069,23.6034483 8.5,23.0344828 C9.06896552,23.137931 9.53448276,23.7068966 9.53448276,24.3275862 L9.53448276,24.3275862 Z M5.03448276,26.1896552 L5.03448276,24.3275862 C5.03448276,24.0172414 5.13793103,23.7586207 5.34482759,23.5 C5.60344828,23.862069 6.06896552,24.5862069 5.81034483,25.4137931 C5.60344828,26.137931 5.65517241,26.862069 5.9137931,27.4310345 C5.39655172,27.2241379 5.03448276,26.7586207 5.03448276,26.1896552 L5.03448276,26.1896552 Z M6.32758621,28.5689655 L8.18965517,28.5689655 C8.70689655,28.5689655 9.22413793,28.362069 9.5862069,28.1034483 C9.63793103,28.0517241 9.68965517,28 9.74137931,27.9482759 C10.2068966,27.5344828 10.5172414,26.9137931 10.5172414,26.2413793 L10.5172414,24.3793103 C10.5172414,23.0862069 9.48275862,22 8.18965517,22 L6.32758621,22 C5.03448276,22 4,23.0344828 4,24.3793103 L4,26.1896552 C4,27.4827586 5.03448276,28.5689655 6.32758621,28.5689655 L6.32758621,28.5689655 Z" id="Fill-15"></path>
                <path d="M18.7931034,22.5689655 C18.7931034,20.4482759 20.5517241,18.6896552 22.6724138,18.6896552 L27.1724138,18.6896552 C29.2931034,18.6896552 31.0517241,20.4482759 31.0517241,22.5689655 L31.0517241,27.0689655 C31.0517241,29.1896552 29.2931034,30.9482759 27.1724138,30.9482759 L22.6724138,30.9482759 C20.5517241,30.9482759 18.7931034,29.1896552 18.7931034,27.0689655 L18.7931034,22.5689655 Z M22.6724138,31.9827586 L27.1724138,31.9827586 C29.862069,31.9827586 32.0862069,29.7586207 32.0862069,27.0689655 L32.0862069,22.5689655 C32.0862069,19.8793103 29.862069,17.6551724 27.1724138,17.6551724 L22.6724138,17.6551724 C19.9827586,17.6551724 17.7586207,19.8793103 17.7586207,22.5689655 L17.7586207,27.0689655 C17.7586207,29.7586207 19.9310345,31.9827586 22.6724138,31.9827586 L22.6724138,31.9827586 Z" id="Fill-17"></path>
                <path d="M23.9655172,22.5172414 L25.8275862,22.5172414 C26.1896552,22.5172414 26.5,22.6724138 26.7586207,22.8793103 C26.7068966,22.9310345 26.6034483,23.0862069 26.3965517,23.1896552 C26.0344828,23.3965517 25.4655172,23.6034483 24.9482759,23.4482759 C24.0172414,23.1896552 23.2413793,23.2931034 22.6724138,23.5517241 C22.8275862,22.9827586 23.3448276,22.5172414 23.9655172,22.5172414 L23.9655172,22.5172414 Z M25.8793103,27.0689655 L24.0172414,27.0689655 C23.7068966,27.0689655 23.4482759,26.9655172 23.1896552,26.7586207 C23.5517241,26.5 24.2758621,26.0344828 25.1034483,26.2931034 C25.8275862,26.5 26.5517241,26.4482759 27.1206897,26.1896552 C26.9137931,26.7068966 26.4482759,27.0689655 25.8793103,27.0689655 L25.8793103,27.0689655 Z M22.6724138,25.7241379 L22.6724138,24.8965517 C22.6724138,24.8448276 22.7241379,24.7413793 22.9310345,24.5862069 C23.0862069,24.4827586 23.7068966,24.1206897 24.637931,24.4310345 C25.5172414,24.6896552 26.5,24.3793103 27.1724138,23.9137931 L27.1724138,24.5862069 C27.1724138,24.7931034 27.0172414,24.9482759 26.9137931,25.0517241 C26.5517241,25.3103448 25.9310345,25.4137931 25.362069,25.2586207 C24.1724138,24.9482759 23.2413793,25.4137931 22.6724138,25.7758621 L22.6724138,25.7241379 Z M23.9655172,28.1034483 L25.8275862,28.1034483 C27.1206897,28.1034483 28.1551724,27.0689655 28.1551724,25.7241379 L28.1551724,23.862069 C28.1551724,23.3448276 27.9482759,22.8275862 27.6896552,22.4655172 L27.5344828,22.3103448 C27.1206897,21.8448276 26.5,21.5344828 25.8275862,21.5344828 L23.9655172,21.5344828 C22.6724138,21.5344828 21.637931,22.5689655 21.637931,23.9137931 L21.637931,25.7241379 C21.637931,27.0172414 22.6724138,28.1034483 23.9655172,28.1034483 L23.9655172,28.1034483 Z" id="Fill-19"></path>
                <path d="M36.4482759,22.5689655 C36.4482759,20.4482759 38.2068966,18.6896552 40.3275862,18.6896552 L44.8275862,18.6896552 C46.9482759,18.6896552 48.7068966,20.4482759 48.7068966,22.5689655 L48.7068966,27.0689655 C48.7068966,29.1896552 46.9482759,30.9482759 44.8275862,30.9482759 L40.3275862,30.9482759 C38.2068966,30.9482759 36.4482759,29.1896552 36.4482759,27.0689655 L36.4482759,22.5689655 Z M40.3275862,31.9827586 L44.8275862,31.9827586 C47.5172414,31.9827586 49.7413793,29.7586207 49.7413793,27.0689655 L49.7413793,22.5689655 C49.7413793,19.8793103 47.5172414,17.6551724 44.8275862,17.6551724 L40.3275862,17.6551724 C37.637931,17.6551724 35.4137931,19.8793103 35.4137931,22.5689655 L35.4137931,27.0689655 C35.4137931,29.7586207 37.5862069,31.9827586 40.3275862,31.9827586 L40.3275862,31.9827586 Z" id="Fill-21"></path>
                <path d="M42.4482759,22.5172414 C42.5,22.5172414 42.6034483,22.5689655 42.7586207,22.7758621 C42.862069,22.9310345 43.2241379,23.5517241 42.9137931,24.4827586 C42.6551724,25.362069 42.9655172,26.3448276 43.4310345,27.0172414 L42.7586207,27.0172414 C42.5517241,27.0172414 42.3965517,26.862069 42.2931034,26.7586207 C42.0344828,26.3965517 41.9310345,25.7758621 42.0862069,25.2068966 C42.3965517,24.0172414 41.9310345,23.0862069 41.5689655,22.5172414 L41.6724138,22.5172414 L42.4482759,22.5172414 Z M44.8275862,23.862069 L44.8275862,25.7241379 C44.8275862,26.0862069 44.6724138,26.3965517 44.4655172,26.6551724 C44.4137931,26.6034483 44.2586207,26.5 44.1551724,26.2931034 C43.9482759,25.9310345 43.7413793,25.362069 43.8965517,24.8448276 C44.1551724,23.9137931 44.0517241,23.137931 43.7931034,22.5689655 C44.362069,22.6724138 44.8275862,23.2413793 44.8275862,23.862069 L44.8275862,23.862069 Z M40.3275862,25.7241379 L40.3275862,23.862069 C40.3275862,23.5517241 40.4310345,23.2931034 40.637931,23.0344828 C40.8965517,23.3965517 41.362069,24.1206897 41.1034483,24.9482759 C40.8965517,25.6724138 40.9482759,26.3965517 41.2068966,26.9655172 C40.637931,26.7586207 40.3275862,26.2931034 40.3275862,25.7241379 L40.3275862,25.7241379 Z M41.6206897,28.1034483 L43.4827586,28.1034483 C44,28.1034483 44.5172414,27.8965517 44.8793103,27.637931 C44.9310345,27.5862069 44.9827586,27.5344828 45.0344828,27.4827586 C45.5,27.0689655 45.8103448,26.4482759 45.8103448,25.7758621 L45.8103448,23.9137931 C45.8103448,22.6206897 44.7758621,21.5344828 43.4827586,21.5344828 L41.6206897,21.5344828 C40.3275862,21.5344828 39.2931034,22.5689655 39.2931034,23.9137931 L39.2931034,25.7241379 C39.2931034,27.0172414 40.3275862,28.1034483 41.6206897,28.1034483 L41.6206897,28.1034483 Z" id="Fill-23"></path>
            </g>
        </g>
    </g>
</svg>