<?xml version="1.0" encoding="UTF-8"?>
<svg width="68px" height="33px" viewBox="0 0 68 33" version="1.1" xmlns="http://www.w3.org/2000/svg" xmlns:xlink="http://www.w3.org/1999/xlink">
    <!-- Generator: Sketch 45.2 (43514) - http://www.bohemiancoding.com/sketch -->
    <title>Group 9 Copy</title>
    <desc>Created with Sketch.</desc>
    <defs></defs>
    <g id="Loyalty-App" stroke="none" stroke-width="1" fill="none" fill-rule="evenodd" opacity="0.5">
        <g id="hm_product" transform="translate(-290.000000, -353.000000)" fill="#FFFFFF">
            <g id="Group-9-Copy" transform="translate(324.000000, 369.500000) rotate(-180.000000) translate(-324.000000, -369.500000) translate(290.000000, 353.000000)">
                <path d="M19.0344828,4.9137931 C19.0344828,2.79310345 20.7931034,1.03448276 22.9137931,1.03448276 L27.4137931,1.03448276 C29.5344828,1.03448276 31.2931034,2.79310345 31.2931034,4.9137931 L31.2931034,9.4137931 C31.2931034,11.5344828 29.5344828,13.2931034 27.4137931,13.2931034 L22.9137931,13.2931034 C20.7931034,13.2931034 19.0344828,11.5344828 19.0344828,9.4137931 C19.0344828,9.4137931 19.0344828,4.9137931 19.0344828,4.9137931 M22.9137931,14.3275862 L27.4137931,14.3275862 C30.1034483,14.3275862 32.3275862,12.1034483 32.3275862,9.4137931 L32.3275862,4.9137931 C32.3275862,2.22413793 30.1034483,-5.68434189e-14 27.4137931,-5.68434189e-14 L22.9137931,-5.68434189e-14 C20.2241379,-5.68434189e-14 18,2.22413793 18,4.9137931 L18,9.4137931 C18,12.1551724 20.2241379,14.3275862 22.9137931,14.3275862" id="Fill-1"></path>
                <path d="M1.46551724,4.9137931 C1.46551724,2.79310345 3.22413793,1.03448276 5.34482759,1.03448276 L9.84482759,1.03448276 C11.9655172,1.03448276 13.7241379,2.79310345 13.7241379,4.9137931 L13.7241379,9.4137931 C13.7241379,11.5344828 11.9655172,13.2931034 9.84482759,13.2931034 L5.34482759,13.2931034 C3.22413793,13.2931034 1.46551724,11.5344828 1.46551724,9.4137931 C1.46551724,9.4137931 1.46551724,4.9137931 1.46551724,4.9137931 M5.34482759,14.3275862 L9.84482759,14.3275862 C12.5344828,14.3275862 14.7586207,12.1034483 14.7586207,9.4137931 L14.7586207,4.9137931 C14.7586207,2.22413793 12.5344828,0 9.84482759,0 L5.34482759,0 C2.65517241,0 0.431034483,2.22413793 0.431034483,4.9137931 L0.431034483,9.4137931 C0.431034483,12.1551724 2.65517241,14.3275862 5.34482759,14.3275862" id="Fill-1-Copy"></path>
                <path d="M24.3275862,5.03448276 L26.1896552,5.03448276 C26.5517241,5.03448276 26.862069,5.18965517 27.1206897,5.39655172 C27.0689655,5.44827586 26.9655172,5.60344828 26.7586207,5.70689655 C26.3965517,5.9137931 25.8275862,6.12068966 25.3103448,5.96551724 C24.3793103,5.70689655 23.6034483,5.81034483 23.0344828,6.06896552 C23.1896552,5.5 23.7068966,5.03448276 24.3275862,5.03448276 M26.2413793,9.53448276 L24.3793103,9.53448276 C24.0689655,9.53448276 23.8103448,9.43103448 23.5517241,9.22413793 C23.9137931,8.96551724 24.637931,8.5 25.4655172,8.75862069 C26.1896552,8.96551724 26.9137931,8.9137931 27.4827586,8.65517241 C27.2758621,9.17241379 26.8103448,9.53448276 26.2413793,9.53448276 M23.0344828,8.24137931 L23.0344828,7.4137931 C23.0344828,7.36206897 23.0862069,7.25862069 23.2931034,7.10344828 C23.4482759,7 24.0689655,6.63793103 25,6.94827586 C25.8793103,7.20689655 26.862069,6.89655172 27.5344828,6.43103448 L27.5344828,7.10344828 C27.5344828,7.31034483 27.3793103,7.46551724 27.2758621,7.56896552 C26.9137931,7.82758621 26.2931034,7.93103448 25.7241379,7.77586207 C24.5344828,7.46551724 23.6034483,7.93103448 23.0344828,8.29310345 C23.0344828,8.29310345 23.0344828,8.24137931 23.0344828,8.24137931 M24.3275862,10.5689655 L26.1896552,10.5689655 C27.4827586,10.5689655 28.5172414,9.53448276 28.5172414,8.18965517 L28.5172414,6.32758621 C28.5172414,5.81034483 28.3103448,5.29310345 28.0517241,4.93103448 C28,4.87931034 27.9482759,4.82758621 27.8965517,4.77586207 C27.4827586,4.31034483 26.862069,4 26.1896552,4 L24.3275862,4 C23.0344828,4 22,5.03448276 22,6.37931034 L22,8.24137931 C22,9.53448276 23.0344828,10.5689655 24.3275862,10.5689655" id="Fill-3"></path>
                <path d="M6.75862069,5.03448276 L8.62068966,5.03448276 C8.98275862,5.03448276 9.29310345,5.18965517 9.55172414,5.39655172 C9.5,5.44827586 9.39655172,5.60344828 9.18965517,5.70689655 C8.82758621,5.9137931 8.25862069,6.12068966 7.74137931,5.96551724 C6.81034483,5.70689655 6.03448276,5.81034483 5.46551724,6.06896552 C5.62068966,5.5 6.13793103,5.03448276 6.75862069,5.03448276 M8.67241379,9.53448276 L6.81034483,9.53448276 C6.5,9.53448276 6.24137931,9.43103448 5.98275862,9.22413793 C6.34482759,8.96551724 7.06896552,8.5 7.89655172,8.75862069 C8.62068966,8.96551724 9.34482759,8.9137931 9.9137931,8.65517241 C9.70689655,9.17241379 9.24137931,9.53448276 8.67241379,9.53448276 M5.46551724,8.24137931 L5.46551724,7.4137931 C5.46551724,7.36206897 5.51724138,7.25862069 5.72413793,7.10344828 C5.87931034,7 6.5,6.63793103 7.43103448,6.94827586 C8.31034483,7.20689655 9.29310345,6.89655172 9.96551724,6.43103448 L9.96551724,7.10344828 C9.96551724,7.31034483 9.81034483,7.46551724 9.70689655,7.56896552 C9.34482759,7.82758621 8.72413793,7.93103448 8.15517241,7.77586207 C6.96551724,7.46551724 6.03448276,7.93103448 5.46551724,8.29310345 C5.46551724,8.29310345 5.46551724,8.24137931 5.46551724,8.24137931 M6.75862069,10.5689655 L8.62068966,10.5689655 C9.9137931,10.5689655 10.9482759,9.53448276 10.9482759,8.18965517 L10.9482759,6.32758621 C10.9482759,5.81034483 10.7413793,5.29310345 10.4827586,4.93103448 C10.4310345,4.87931034 10.3793103,4.82758621 10.3275862,4.77586207 C9.9137931,4.31034483 9.29310345,4 8.62068966,4 L6.75862069,4 C5.46551724,4 4.43103448,5.03448276 4.43103448,6.37931034 L4.43103448,8.24137931 C4.43103448,9.53448276 5.46551724,10.5689655 6.75862069,10.5689655" id="Fill-3-Copy"></path>
                <path d="M36.7931034,4.9137931 C36.7931034,2.79310345 38.5517241,1.03448276 40.6724138,1.03448276 L45.1724138,1.03448276 C47.2931034,1.03448276 49.0517241,2.79310345 49.0517241,4.9137931 L49.0517241,9.4137931 C49.0517241,11.5344828 47.2931034,13.2931034 45.1724138,13.2931034 L40.6724138,13.2931034 C38.5517241,13.2931034 36.7931034,11.5344828 36.7931034,9.4137931 L36.7931034,4.9137931 Z M40.6724138,14.3275862 L45.1724138,14.3275862 C47.862069,14.3275862 50.0862069,12.1034483 50.0862069,9.4137931 L50.0862069,4.9137931 C50.0862069,2.22413793 47.862069,-5.68434189e-14 45.1724138,-5.68434189e-14 L40.6724138,-5.68434189e-14 C37.9827586,-5.68434189e-14 35.7586207,2.22413793 35.7586207,4.9137931 L35.7586207,9.4137931 C35.7586207,12.1551724 37.9310345,14.3275862 40.6724138,14.3275862 L40.6724138,14.3275862 Z" id="Fill-5"></path>
                <path d="M42.7931034,4.9137931 C42.8448276,4.9137931 42.9482759,4.96551724 43.1034483,5.17241379 C43.2068966,5.32758621 43.5689655,5.94827586 43.2586207,6.87931034 C43,7.75862069 43.3103448,8.74137931 43.7758621,9.4137931 L43.1034483,9.4137931 C42.8965517,9.4137931 42.7413793,9.25862069 42.637931,9.15517241 C42.3793103,8.79310345 42.2758621,8.17241379 42.4310345,7.60344828 C42.7413793,6.4137931 42.2758621,5.48275862 41.9137931,4.9137931 L42.0172414,4.9137931 L42.7931034,4.9137931 Z M45.1724138,6.20689655 L45.1724138,8.06896552 C45.1724138,8.43103448 45.0172414,8.74137931 44.8103448,9 C44.7586207,8.94827586 44.6034483,8.84482759 44.5,8.63793103 C44.2931034,8.27586207 44.0862069,7.70689655 44.2413793,7.18965517 C44.5,6.25862069 44.3965517,5.48275862 44.137931,4.9137931 C44.7068966,5.06896552 45.1724138,5.5862069 45.1724138,6.20689655 L45.1724138,6.20689655 Z M40.6724138,8.12068966 L40.6724138,6.25862069 C40.6724138,5.94827586 40.7758621,5.68965517 40.9827586,5.43103448 C41.2413793,5.79310345 41.7068966,6.51724138 41.4482759,7.34482759 C41.2413793,8.06896552 41.2931034,8.79310345 41.5517241,9.36206897 C41.0344828,9.15517241 40.6724138,8.68965517 40.6724138,8.12068966 L40.6724138,8.12068966 Z M41.9655172,10.4482759 L43.8275862,10.4482759 C44.3448276,10.4482759 44.862069,10.2413793 45.2241379,9.98275862 C45.2758621,9.93103448 45.3275862,9.87931034 45.3793103,9.82758621 C45.8448276,9.4137931 46.1551724,8.79310345 46.1551724,8.12068966 L46.1551724,6.25862069 C46.1551724,4.96551724 45.1206897,3.87931034 43.8275862,3.87931034 L41.9655172,3.87931034 C40.6724138,3.87931034 39.637931,4.9137931 39.637931,6.25862069 L39.637931,8.12068966 C39.637931,9.4137931 40.6724138,10.4482759 41.9655172,10.4482759 L41.9655172,10.4482759 Z" id="Fill-7"></path>
                <path d="M54.4482759,4.9137931 C54.4482759,2.79310345 56.2068966,1.03448276 58.3275862,1.03448276 L62.8275862,1.03448276 C64.9482759,1.03448276 66.7068966,2.79310345 66.7068966,4.9137931 L66.7068966,9.4137931 C66.7068966,11.5344828 64.9482759,13.2931034 62.8275862,13.2931034 L58.3275862,13.2931034 C56.2068966,13.2931034 54.4482759,11.5344828 54.4482759,9.4137931 L54.4482759,4.9137931 Z M58.3275862,14.3275862 L62.8275862,14.3275862 C65.5172414,14.3275862 67.7413793,12.1034483 67.7413793,9.4137931 L67.7413793,4.9137931 C67.7413793,2.22413793 65.5172414,-5.68434189e-14 62.8275862,-5.68434189e-14 L58.3275862,-5.68434189e-14 C55.637931,-5.68434189e-14 53.4137931,2.22413793 53.4137931,4.9137931 L53.4137931,9.4137931 C53.4137931,12.1551724 55.5862069,14.3275862 58.3275862,14.3275862 L58.3275862,14.3275862 Z" id="Fill-9"></path>
                <path d="M59.6206897,4.9137931 L61.4827586,4.9137931 C61.8448276,4.9137931 62.1551724,5.06896552 62.4137931,5.27586207 C62.362069,5.32758621 62.2586207,5.48275862 62.0517241,5.5862069 C61.6896552,5.79310345 61.1206897,6 60.6034483,5.84482759 C59.6724138,5.5862069 58.8965517,5.68965517 58.3275862,5.94827586 C58.4310345,5.37931034 59,4.9137931 59.6206897,4.9137931 M61.4827586,9.4137931 L59.6206897,9.4137931 C59.3103448,9.4137931 59.0517241,9.31034483 58.7931034,9.10344828 C59.1551724,8.84482759 59.8793103,8.37931034 60.7068966,8.63793103 C61.4310345,8.84482759 62.1551724,8.79310345 62.7241379,8.53448276 C62.5689655,9.05172414 62.0517241,9.4137931 61.4827586,9.4137931 M58.3275862,8.12068966 L58.3275862,7.29310345 C58.3275862,7.24137931 58.3793103,7.13793103 58.5862069,6.98275862 C58.7413793,6.87931034 59.362069,6.51724138 60.2931034,6.82758621 C61.1724138,7.0862069 62.1551724,6.77586207 62.8275862,6.31034483 L62.8275862,6.98275862 C62.8275862,7.18965517 62.6724138,7.34482759 62.5689655,7.44827586 C62.2068966,7.70689655 61.5862069,7.81034483 61.0172414,7.65517241 C59.8275862,7.34482759 58.8965517,7.81034483 58.3275862,8.17241379 C58.3275862,8.17241379 58.3275862,8.12068966 58.3275862,8.12068966 M59.6206897,10.4482759 L61.4827586,10.4482759 C62.7758621,10.4482759 63.8103448,9.4137931 63.8103448,8.06896552 L63.8103448,6.20689655 C63.8103448,5.68965517 63.6034483,5.17241379 63.3448276,4.81034483 C63.2931034,4.75862069 63.2413793,4.70689655 63.1896552,4.65517241 C62.7758621,4.18965517 62.1551724,3.87931034 61.4827586,3.87931034 L59.6206897,3.87931034 C58.3275862,3.87931034 57.2931034,4.9137931 57.2931034,6.25862069 L57.2931034,8.12068966 C57.2931034,9.4137931 58.3275862,10.4482759 59.6206897,10.4482759" id="Fill-11"></path>
                <path d="M19.0344828,22.9137931 C19.0344828,20.7931034 20.7931034,19.0344828 22.9137931,19.0344828 L27.4137931,19.0344828 C29.5344828,19.0344828 31.2931034,20.7931034 31.2931034,22.9137931 L31.2931034,27.4137931 C31.2931034,29.5344828 29.5344828,31.2931034 27.4137931,31.2931034 L22.9137931,31.2931034 C20.7931034,31.2931034 19.0344828,29.5344828 19.0344828,27.4137931 C19.0344828,27.4137931 19.0344828,22.9137931 19.0344828,22.9137931 M22.9137931,32.3275862 L27.4137931,32.3275862 C30.1034483,32.3275862 32.3275862,30.1034483 32.3275862,27.4137931 L32.3275862,22.9137931 C32.3275862,20.2241379 30.1034483,18 27.4137931,18 L22.9137931,18 C20.2241379,18 18,20.2241379 18,22.9137931 L18,27.4137931 C18,30.1034483 20.2241379,32.3275862 22.9137931,32.3275862" id="Fill-13"></path>
                <path d="M1.46551724,22.9137931 C1.46551724,20.7931034 3.22413793,19.0344828 5.34482759,19.0344828 L9.84482759,19.0344828 C11.9655172,19.0344828 13.7241379,20.7931034 13.7241379,22.9137931 L13.7241379,27.4137931 C13.7241379,29.5344828 11.9655172,31.2931034 9.84482759,31.2931034 L5.34482759,31.2931034 C3.22413793,31.2931034 1.46551724,29.5344828 1.46551724,27.4137931 C1.46551724,27.4137931 1.46551724,22.9137931 1.46551724,22.9137931 M5.34482759,32.3275862 L9.84482759,32.3275862 C12.5344828,32.3275862 14.7586207,30.1034483 14.7586207,27.4137931 L14.7586207,22.9137931 C14.7586207,20.2241379 12.5344828,18 9.84482759,18 L5.34482759,18 C2.65517241,18 0.431034483,20.2241379 0.431034483,22.9137931 L0.431034483,27.4137931 C0.431034483,30.1034483 2.65517241,32.3275862 5.34482759,32.3275862" id="Fill-13-Copy"></path>
                <path d="M25.1551724,22.9827586 C25.2068966,22.9827586 25.3103448,23.0344828 25.4655172,23.2413793 C25.5689655,23.3965517 25.9310345,24.0172414 25.6206897,24.9482759 C25.362069,25.8275862 25.6724138,26.8103448 26.137931,27.4827586 L25.4655172,27.4827586 C25.2586207,27.4827586 25.1034483,27.3275862 25,27.2241379 C24.7413793,26.862069 24.637931,26.2413793 24.7931034,25.6724138 C25.1034483,24.4827586 24.637931,23.5517241 24.2758621,22.9827586 L24.3793103,22.9827586 L25.1551724,22.9827586 Z M27.5344828,24.3275862 L27.5344828,26.1896552 C27.5344828,26.5517241 27.3793103,26.862069 27.1724138,27.1206897 C27.1206897,27.0689655 26.9655172,26.9655172 26.862069,26.7586207 C26.6551724,26.3965517 26.4482759,25.8275862 26.6034483,25.3103448 C26.862069,24.3793103 26.7586207,23.6034483 26.5,23.0344828 C27.0689655,23.137931 27.5344828,23.7068966 27.5344828,24.3275862 L27.5344828,24.3275862 Z M23.0344828,26.1896552 L23.0344828,24.3275862 C23.0344828,24.0172414 23.137931,23.7586207 23.3448276,23.5 C23.6034483,23.862069 24.0689655,24.5862069 23.8103448,25.4137931 C23.6034483,26.137931 23.6551724,26.862069 23.9137931,27.4310345 C23.3965517,27.2241379 23.0344828,26.7586207 23.0344828,26.1896552 L23.0344828,26.1896552 Z M24.3275862,28.5689655 L26.1896552,28.5689655 C26.7068966,28.5689655 27.2241379,28.362069 27.5862069,28.1034483 C27.637931,28.0517241 27.6896552,28 27.7413793,27.9482759 C28.2068966,27.5344828 28.5172414,26.9137931 28.5172414,26.2413793 L28.5172414,24.3793103 C28.5172414,23.0862069 27.4827586,22 26.1896552,22 L24.3275862,22 C23.0344828,22 22,23.0344828 22,24.3793103 L22,26.1896552 C22,27.4827586 23.0344828,28.5689655 24.3275862,28.5689655 L24.3275862,28.5689655 Z" id="Fill-15"></path>
                <path d="M7.5862069,22.9827586 C7.63793103,22.9827586 7.74137931,23.0344828 7.89655172,23.2413793 C8,23.3965517 8.36206897,24.0172414 8.05172414,24.9482759 C7.79310345,25.8275862 8.10344828,26.8103448 8.56896552,27.4827586 L7.89655172,27.4827586 C7.68965517,27.4827586 7.53448276,27.3275862 7.43103448,27.2241379 C7.17241379,26.862069 7.06896552,26.2413793 7.22413793,25.6724138 C7.53448276,24.4827586 7.06896552,23.5517241 6.70689655,22.9827586 L6.81034483,22.9827586 L7.5862069,22.9827586 Z M9.96551724,24.3275862 L9.96551724,26.1896552 C9.96551724,26.5517241 9.81034483,26.862069 9.60344828,27.1206897 C9.55172414,27.0689655 9.39655172,26.9655172 9.29310345,26.7586207 C9.0862069,26.3965517 8.87931034,25.8275862 9.03448276,25.3103448 C9.29310345,24.3793103 9.18965517,23.6034483 8.93103448,23.0344828 C9.5,23.137931 9.96551724,23.7068966 9.96551724,24.3275862 L9.96551724,24.3275862 Z M5.46551724,26.1896552 L5.46551724,24.3275862 C5.46551724,24.0172414 5.56896552,23.7586207 5.77586207,23.5 C6.03448276,23.862069 6.5,24.5862069 6.24137931,25.4137931 C6.03448276,26.137931 6.0862069,26.862069 6.34482759,27.4310345 C5.82758621,27.2241379 5.46551724,26.7586207 5.46551724,26.1896552 L5.46551724,26.1896552 Z M6.75862069,28.5689655 L8.62068966,28.5689655 C9.13793103,28.5689655 9.65517241,28.362069 10.0172414,28.1034483 C10.0689655,28.0517241 10.1206897,28 10.1724138,27.9482759 C10.637931,27.5344828 10.9482759,26.9137931 10.9482759,26.2413793 L10.9482759,24.3793103 C10.9482759,23.0862069 9.9137931,22 8.62068966,22 L6.75862069,22 C5.46551724,22 4.43103448,23.0344828 4.43103448,24.3793103 L4.43103448,26.1896552 C4.43103448,27.4827586 5.46551724,28.5689655 6.75862069,28.5689655 L6.75862069,28.5689655 Z" id="Fill-15-Copy"></path>
                <path d="M36.7931034,22.5689655 C36.7931034,20.4482759 38.5517241,18.6896552 40.6724138,18.6896552 L45.1724138,18.6896552 C47.2931034,18.6896552 49.0517241,20.4482759 49.0517241,22.5689655 L49.0517241,27.0689655 C49.0517241,29.1896552 47.2931034,30.9482759 45.1724138,30.9482759 L40.6724138,30.9482759 C38.5517241,30.9482759 36.7931034,29.1896552 36.7931034,27.0689655 L36.7931034,22.5689655 Z M40.6724138,31.9827586 L45.1724138,31.9827586 C47.862069,31.9827586 50.0862069,29.7586207 50.0862069,27.0689655 L50.0862069,22.5689655 C50.0862069,19.8793103 47.862069,17.6551724 45.1724138,17.6551724 L40.6724138,17.6551724 C37.9827586,17.6551724 35.7586207,19.8793103 35.7586207,22.5689655 L35.7586207,27.0689655 C35.7586207,29.7586207 37.9310345,31.9827586 40.6724138,31.9827586 L40.6724138,31.9827586 Z" id="Fill-17"></path>
                <path d="M41.9655172,22.5172414 L43.8275862,22.5172414 C44.1896552,22.5172414 44.5,22.6724138 44.7586207,22.8793103 C44.7068966,22.9310345 44.6034483,23.0862069 44.3965517,23.1896552 C44.0344828,23.3965517 43.4655172,23.6034483 42.9482759,23.4482759 C42.0172414,23.1896552 41.2413793,23.2931034 40.6724138,23.5517241 C40.8275862,22.9827586 41.3448276,22.5172414 41.9655172,22.5172414 L41.9655172,22.5172414 Z M43.8793103,27.0689655 L42.0172414,27.0689655 C41.7068966,27.0689655 41.4482759,26.9655172 41.1896552,26.7586207 C41.5517241,26.5 42.2758621,26.0344828 43.1034483,26.2931034 C43.8275862,26.5 44.5517241,26.4482759 45.1206897,26.1896552 C44.9137931,26.7068966 44.4482759,27.0689655 43.8793103,27.0689655 L43.8793103,27.0689655 Z M40.6724138,25.7241379 L40.6724138,24.8965517 C40.6724138,24.8448276 40.7241379,24.7413793 40.9310345,24.5862069 C41.0862069,24.4827586 41.7068966,24.1206897 42.637931,24.4310345 C43.5172414,24.6896552 44.5,24.3793103 45.1724138,23.9137931 L45.1724138,24.5862069 C45.1724138,24.7931034 45.0172414,24.9482759 44.9137931,25.0517241 C44.5517241,25.3103448 43.9310345,25.4137931 43.362069,25.2586207 C42.1724138,24.9482759 41.2413793,25.4137931 40.6724138,25.7758621 L40.6724138,25.7241379 Z M41.9655172,28.1034483 L43.8275862,28.1034483 C45.1206897,28.1034483 46.1551724,27.0689655 46.1551724,25.7241379 L46.1551724,23.862069 C46.1551724,23.3448276 45.9482759,22.8275862 45.6896552,22.4655172 L45.5344828,22.3103448 C45.1206897,21.8448276 44.5,21.5344828 43.8275862,21.5344828 L41.9655172,21.5344828 C40.6724138,21.5344828 39.637931,22.5689655 39.637931,23.9137931 L39.637931,25.7241379 C39.637931,27.0172414 40.6724138,28.1034483 41.9655172,28.1034483 L41.9655172,28.1034483 Z" id="Fill-19"></path>
                <path d="M54.4482759,22.5689655 C54.4482759,20.4482759 56.2068966,18.6896552 58.3275862,18.6896552 L62.8275862,18.6896552 C64.9482759,18.6896552 66.7068966,20.4482759 66.7068966,22.5689655 L66.7068966,27.0689655 C66.7068966,29.1896552 64.9482759,30.9482759 62.8275862,30.9482759 L58.3275862,30.9482759 C56.2068966,30.9482759 54.4482759,29.1896552 54.4482759,27.0689655 L54.4482759,22.5689655 Z M58.3275862,31.9827586 L62.8275862,31.9827586 C65.5172414,31.9827586 67.7413793,29.7586207 67.7413793,27.0689655 L67.7413793,22.5689655 C67.7413793,19.8793103 65.5172414,17.6551724 62.8275862,17.6551724 L58.3275862,17.6551724 C55.637931,17.6551724 53.4137931,19.8793103 53.4137931,22.5689655 L53.4137931,27.0689655 C53.4137931,29.7586207 55.5862069,31.9827586 58.3275862,31.9827586 L58.3275862,31.9827586 Z" id="Fill-21"></path>
                <path d="M60.4482759,22.5172414 C60.5,22.5172414 60.6034483,22.5689655 60.7586207,22.7758621 C60.862069,22.9310345 61.2241379,23.5517241 60.9137931,24.4827586 C60.6551724,25.362069 60.9655172,26.3448276 61.4310345,27.0172414 L60.7586207,27.0172414 C60.5517241,27.0172414 60.3965517,26.862069 60.2931034,26.7586207 C60.0344828,26.3965517 59.9310345,25.7758621 60.0862069,25.2068966 C60.3965517,24.0172414 59.9310345,23.0862069 59.5689655,22.5172414 L59.6724138,22.5172414 L60.4482759,22.5172414 Z M62.8275862,23.862069 L62.8275862,25.7241379 C62.8275862,26.0862069 62.6724138,26.3965517 62.4655172,26.6551724 C62.4137931,26.6034483 62.2586207,26.5 62.1551724,26.2931034 C61.9482759,25.9310345 61.7413793,25.362069 61.8965517,24.8448276 C62.1551724,23.9137931 62.0517241,23.137931 61.7931034,22.5689655 C62.362069,22.6724138 62.8275862,23.2413793 62.8275862,23.862069 L62.8275862,23.862069 Z M58.3275862,25.7241379 L58.3275862,23.862069 C58.3275862,23.5517241 58.4310345,23.2931034 58.637931,23.0344828 C58.8965517,23.3965517 59.362069,24.1206897 59.1034483,24.9482759 C58.8965517,25.6724138 58.9482759,26.3965517 59.2068966,26.9655172 C58.637931,26.7586207 58.3275862,26.2931034 58.3275862,25.7241379 L58.3275862,25.7241379 Z M59.6206897,28.1034483 L61.4827586,28.1034483 C62,28.1034483 62.5172414,27.8965517 62.8793103,27.637931 C62.9310345,27.5862069 62.9827586,27.5344828 63.0344828,27.4827586 C63.5,27.0689655 63.8103448,26.4482759 63.8103448,25.7758621 L63.8103448,23.9137931 C63.8103448,22.6206897 62.7758621,21.5344828 61.4827586,21.5344828 L59.6206897,21.5344828 C58.3275862,21.5344828 57.2931034,22.5689655 57.2931034,23.9137931 L57.2931034,25.7241379 C57.2931034,27.0172414 58.3275862,28.1034483 59.6206897,28.1034483 L59.6206897,28.1034483 Z" id="Fill-23"></path>
            </g>
        </g>
    </g>
</svg>