<?xml version="1.0" encoding="UTF-8"?>
<svg width="22px" height="22px" viewBox="0 0 22 22" version="1.1" xmlns="http://www.w3.org/2000/svg" xmlns:xlink="http://www.w3.org/1999/xlink">
    <!-- Generator: Sketch 45.2 (43514) - http://www.bohemiancoding.com/sketch -->
    <title>about</title>
    <desc>Created with Sketch.</desc>
    <defs>
        <circle id="path-1" cx="11" cy="11" r="11"></circle>
    </defs>
    <g id="Loyalty-App" stroke="none" stroke-width="1" fill="none" fill-rule="evenodd">
        <g id="Artboard-3" transform="translate(-26.000000, -307.000000)">
            <g id="about" transform="translate(37.026279, 318.026279) rotate(-30.000000) translate(-37.026279, -318.026279) translate(26.026279, 307.026279)">
                <mask id="mask-2" fill="white">
                    <use xlink:href="#path-1"></use>
                </mask>
                <circle stroke="#FFFFFF" stroke-width="1.5" cx="11" cy="11" r="10.25"></circle>
                <path d="M4.44910398,11.4287061 C4.69542907,10.68919 5.27573456,10.1089211 6.01526611,9.86264253 C7.31214784,9.43075544 8.71359187,10.1319721 9.14547895,11.4288539 L11.3097668,17.9278337 L12.4613526,21.3826481 C12.7418791,22.2407598 13.4964165,22.8084111 14.3710551,22.8084111 C15.4610851,22.8084111 16.3385158,21.9309804 16.3385158,20.8409504 C16.3385158,20.5895149 16.2908703,20.3616639 16.1476661,19.9678119 L9.42184623,1.17602907 C8.99353121,-0.0100815059 7.99644465,-0.736633095 6.79749045,-0.736633095 C5.59876115,-0.736633095 4.60152991,-0.010306146 4.17497288,1.17091601 L-2.55599213,19.976978 C-2.69601293,20.3620097 -2.74353492,20.58969 -2.74353492,20.8409504 C-2.74353492,21.9309804 -1.86610423,22.8084111 -0.776074218,22.8084111 C0.0799352388,22.8084111 0.832813624,22.2446535 1.1345552,21.3796293 L4.44910398,11.4287061 Z M3.1722002,22.0655962 C2.57473638,23.7918282 1.0204804,24.9584112 -0.776074218,24.9584112 C-3.0535165,24.9584112 -4.89353501,23.1183927 -4.89353501,20.8409504 C-4.89353501,20.3128008 -4.79608708,19.8459227 -4.57838749,19.2473291 L2.1517522,0.443544557 C2.88206637,-1.5788639 4.67760541,-2.88663319 6.79749045,-2.88663319 C8.91779629,-2.88663319 10.7130569,-1.57847252 11.4450679,0.44866037 L18.1700695,19.2381852 C18.3909015,19.8454732 18.4885159,20.3122863 18.4885159,20.8409504 C18.4885159,23.1183927 16.6484974,24.9584112 14.3710551,24.9584112 C12.5507924,24.9584112 10.9826751,23.7786899 10.4197319,22.0566265 L9.27000169,18.6074354 L7.10561788,12.1081677 C7.04890545,11.9378701 6.86487748,11.8457912 6.6945799,11.9025036 C6.59746972,11.9348432 6.521268,12.0110401 6.48892228,12.1081483 L3.1722002,22.0655962 Z" id="Path" fill="#FFFFFF" fill-rule="nonzero" mask="url(#mask-2)" transform="translate(6.797490, 11.035889) rotate(-330.000000) translate(-6.797490, -11.035889) "></path>
            </g>
        </g>
    </g>
</svg>