<?xml version="1.0" encoding="UTF-8"?>
<svg width="184px" height="192px" viewBox="0 0 184 192" version="1.1" xmlns="http://www.w3.org/2000/svg" xmlns:xlink="http://www.w3.org/1999/xlink">
    <!-- Generator: Sketch 46.2 (44496) - http://www.bohemiancoding.com/sketch -->
    <title>avatar</title>
    <desc>Created with Sketch.</desc>
    <defs>
        <filter x="-70.5%" y="-46.8%" width="241.8%" height="241.8%" filterUnits="objectBoundingBox" id="filter-1">
            <feOffset dx="0" dy="26" in="SourceAlpha" result="shadowOffsetOuter1"></feOffset>
            <feGaussianBlur stdDeviation="21.5" in="shadowOffsetOuter1" result="shadowBlurOuter1"></feGaussianBlur>
            <feColorMatrix values="0 0 0 0 0.811764706   0 0 0 0 0.847058824   0 0 0 0 0.862745098  0 0 0 0.475685009 0" type="matrix" in="shadowBlurOuter1" result="shadowMatrixOuter1"></feColorMatrix>
            <feMerge>
                <feMergeNode in="shadowMatrixOuter1"></feMergeNode>
                <feMergeNode in="SourceGraphic"></feMergeNode>
            </feMerge>
        </filter>
        <circle id="path-2" cx="55" cy="55" r="55"></circle>
        <path d="M18.8888889,0 C18.8888889,4.39393939 14.6613333,8.78787879 9.44444444,8.78787879 C4.22933333,8.78787879 0,4.39393939 0,0 L18.8888889,0 Z" id="path-4"></path>
    </defs>
    <g id="Loyalty-App" stroke="none" stroke-width="1" fill="none" fill-rule="evenodd">
        <g id="hmapp_login-copy-2" transform="translate(0.000000, -179.000000)">
            <g id="avatar" filter="url(#filter-1)" transform="translate(33.000000, 194.000000)">
                <g id="chief_1">
                    <g id="face">
                        <mask id="mask-3" fill="white">
                            <use xlink:href="#path-2"></use>
                        </mask>
                        <use id="Mask" fill="#FFFFFF" xlink:href="#path-2"></use>
                        <path d="M53.739879,109.098976 C69.31375,109.456476 66.7385081,81.5750242 66.7385081,81.5750242 C66.0518952,81.2876048 65.6181048,80.6027661 65.6509274,79.8602661 L66.0341532,71.1942177 L65.87625,69.0642984 L44.1068952,69.0642984 L43.9489919,71.1942177 L44.3322177,79.8602661 C44.3650403,80.6027661 43.93125,81.2876048 43.2455242,81.5750242 C43.2455242,81.5750242 39.0788306,108.762766 53.739879,109.098976" id="Fill-4" fill="#F9C7A0" mask="url(#mask-3)"></path>
                        <path d="M59.5795484,109.811048 C60.0026935,109.776452 60.4205161,109.720565 60.8401129,109.67621 C61.3732581,109.619435 61.9081774,109.571532 62.436,109.499677 C62.8981774,109.436694 63.3532581,109.354194 63.811,109.279677 C64.2900323,109.2025 64.7708387,109.133306 65.2463226,109.04371 C65.7306774,108.952339 66.2088226,108.840565 66.689629,108.735887 C67.1278548,108.640968 67.569629,108.553145 68.0043065,108.447581 C68.5072903,108.326048 69.0014032,108.184113 69.4981774,108.048387 C69.9018065,107.938387 70.3080968,107.835484 70.7081774,107.716613 C71.2235806,107.562258 71.731,107.390161 72.2393065,107.2225 C72.611,107.099194 72.9853548,106.982984 73.3526129,106.852581 C73.8768871,106.667177 74.3914032,106.464032 74.9085806,106.262661 C75.251,106.129597 75.5969677,106.001855 75.9367258,105.861694 C76.4645484,105.643468 76.9826129,105.409274 77.5024516,105.175968 C77.8200323,105.033145 78.1411613,104.894758 78.4560806,104.745726 C78.9839032,104.496452 79.5037419,104.23121 80.0226935,103.965081 C80.3172097,103.813387 80.6143871,103.667016 80.9062419,103.510887 C81.4322903,103.22879 81.9494677,102.9325 82.464871,102.633548 C82.7380968,102.475645 83.0139839,102.32129 83.2845484,102.158065 C83.8043871,101.845806 84.3144677,101.519355 84.8227742,101.190242 C85.0791452,101.024355 85.3364032,100.862016 85.5892258,100.692581 C86.0993065,100.350161 86.599629,99.9953226 87.0972903,99.6369355 C87.3368065,99.4639516 87.5780968,99.2927419 87.8158387,99.1162097 C88.3117258,98.7462903 88.7987419,98.3639516 89.2822097,97.9780645 C89.5093065,97.7970968 89.7364032,97.6179032 89.9599516,97.4333871 C90.4389839,97.038629 90.9091452,96.6314516 91.374871,96.2207258 C91.5913226,96.03 91.8086613,95.8392742 92.0215645,95.645 C92.4793065,95.2280645 92.9264032,94.801371 93.3699516,94.3693548 C93.5260806,94.2176613 93.6813226,94.0659677 93.8356774,93.9116129 C93.9385806,93.8087097 85.0631774,89.7623656 67.2094677,81.7725806 C63.7338226,85.3546774 53.2687419,90.2922581 42.7859194,81.7672581 C25.0830161,89.7783333 16.2016989,93.8178763 16.1419677,93.8858871 C16.6449516,94.4199194 17.1426129,94.8883065 17.6438226,95.3522581 C17.7644677,95.4640323 17.8797903,95.581129 18.0013226,95.691129 C18.5158387,96.1595161 19.0445484,96.6128226 19.5768065,97.0616935 C19.6965645,97.1628226 19.8118871,97.2692742 19.9325323,97.368629 C20.4674516,97.8121774 21.0156774,98.238871 21.5665645,98.6620161 C21.6934194,98.7595968 21.8149516,98.8625 21.9426935,98.9583065 C22.5042258,99.3814516 23.0790645,99.7877419 23.6574516,100.189597 C23.7816452,100.275645 23.9005161,100.367903 24.0247097,100.453065 C24.6030968,100.847823 25.1939032,101.224839 25.7882581,101.598306 C25.9204355,101.681694 26.0490645,101.77129 26.182129,101.852903 C26.7711613,102.216613 27.3726129,102.561694 27.9767258,102.903226 C28.1213226,102.984839 28.2614839,103.073548 28.4078548,103.154274 C29.0039839,103.484274 29.6125323,103.795645 30.2228548,104.104355 C30.3825323,104.185081 30.5377742,104.272903 30.6983387,104.351855 C31.2953548,104.647258 31.9039032,104.922258 32.5133387,105.195484 C32.6943065,105.277097 32.8708387,105.365806 33.0526935,105.444758 C33.6470484,105.70379 34.2529355,105.943306 34.8588226,106.181935 C35.0619677,106.261774 35.2606774,106.350484 35.4647097,106.428548 C36.0555161,106.652984 36.6560806,106.856129 37.2566452,107.061048 C37.4837419,107.138226 37.7055161,107.225161 37.9335,107.29879 C38.5243065,107.49129 39.1239839,107.6625 39.7236613,107.835484 C39.9676129,107.906452 40.2080161,107.987177 40.4537419,108.05371 C41.0401129,108.214274 41.6353548,108.352661 42.2288226,108.49371 C42.4949516,108.557581 42.7575323,108.63121 43.0254355,108.690645 C43.6002742,108.818387 44.1830968,108.923952 44.7650323,109.033065 C45.0586613,109.088065 45.3478548,109.154597 45.642371,109.205161 C46.2278548,109.305403 46.8213226,109.382581 47.4130161,109.465081 C47.7101935,109.505887 48.0038226,109.558226 48.3018871,109.594597 C48.9476935,109.672661 49.6005968,109.727661 50.2535,109.783548 C50.5036613,109.804839 50.7511613,109.837661 51.0022097,109.855403 C51.9088226,109.921048 52.8216452,109.964516 53.7397903,109.985806 C54.7253548,110.007984 55.7055968,110.003548 56.679629,109.975161 C57.0229355,109.964516 57.3618065,109.935242 57.7033387,109.918387 C58.3305161,109.888226 58.9585806,109.8625 59.5795484,109.811048 Z" id="Fill-6" fill="#F1F5F6" mask="url(#mask-3)"></path>
                        <path d="M44.191879,76.6786935 L44.191879,76.6786935 C43.8840565,76.6786935 43.8015565,76.9261935 43.7447823,77.1364355 L42.7858306,81.7670806 C45.2803468,87.2298226 49.7317984,91.550871 50.9284919,92.6535323 C51.0704274,92.7839355 51.3010726,92.7147419 51.3622823,92.5311129 C53.4513952,86.1999032 53.5605081,85.3846613 55.0002661,84.6199839 C55.0002661,84.6199839 44.2992177,79.3124839 44.191879,76.6786935" id="Fill-14" fill="#ECECEC" mask="url(#mask-3)"></path>
                        <path d="M65.791621,76.6786935 L65.791621,76.6786935 C66.0994435,76.6786935 66.1819435,76.9261935 66.2387177,77.1364355 L67.1976694,81.7670806 C64.7031532,87.2298226 60.2517016,91.550871 59.0550081,92.6535323 C58.9130726,92.7839355 58.6824274,92.7147419 58.6212177,92.5311129 C56.5321048,86.1999032 56.4229919,85.3846613 54.9832339,84.6199839 C54.9832339,84.6199839 65.6842823,79.3124839 65.791621,76.6786935" id="Fill-18" fill="#ECECEC" mask="url(#mask-3)"></path>
                        <path d="M36.417629,57.3646452 C36.4265,57.3619839 36.4344839,57.3566613 36.4424677,57.354 L36.4460161,57.3646452 L37.9620645,63.4714194 C38.6513387,66.2462581 39.9881935,68.8268226 41.8581935,70.9904516 C49.6823871,80.0423871 51.3572258,80.9977903 53.8011774,81.0971452 L55.0005323,81.0962581 L56.199,81.0971452 C58.6429516,80.9977903 60.3177903,80.0423871 68.1419839,70.9904516 C70.0119839,68.8268226 71.3488387,66.2462581 72.0381129,63.4714194 L73.5541613,57.3646452 L73.5577097,57.354 C73.5656935,57.3566613 73.5736774,57.3619839 73.5825484,57.3646452 C75.9342419,58.087629 78.8332742,55.7687581 80.1186774,51.587871 C81.4040806,47.4069839 80.5888387,42.9475484 78.2371452,42.2245645 C78.0597258,42.1695645 77.877871,42.1420645 77.6942419,42.1269839 L77.932871,39.8471452 C77.932871,17.864 59.0164194,16.2264194 58.1035968,16.2264194 L56.3098871,16.2264194 L55.0005323,16.2264194 L53.6902903,16.2264194 L51.8965806,16.2264194 C50.9837581,16.2264194 32.0673065,17.864 32.0673065,39.8471452 L32.3059355,42.1269839 C32.1223065,42.1420645 31.9404516,42.1695645 31.7630323,42.2245645 C29.4113387,42.9475484 28.5960968,47.4069839 29.8815,51.587871 C31.1669032,55.7687581 34.0659355,58.087629 36.417629,57.3646452" id="Fill-20" fill="#F9C7A0" mask="url(#mask-3)"></path>
                        <path d="M46.4791694,11.9795323 C33.6004298,15.6594527 33.4295401,25.0002755 33.3592569,32.1356004 C33.2889736,39.2709254 32.340621,42.0308226 32.340621,42.0308226 L32.5836855,42.0414677 L34.4279597,49.8399355 L36.0894919,49.8399355 C35.5412661,44.5625968 35.2902177,37.6388065 35.2902177,37.6388065 L39.0639274,32.7535645 C47.0664274,22.9742097 71.5538468,37.0932419 74.7234435,33.6007419 L74.0572339,49.8408226 L75.7480403,49.8408226 L77.4832016,42.1230806 L77.6943306,42.126629 C78.1817611,37.7338744 76.3046087,34.9015442 76.4947707,32.7535645 C76.6849326,30.6055848 76.7298624,28.6929015 75.7480403,26.0203503 C73.5311855,19.9880922 66.8105403,14.8040484 61.20675,12.7823548 C56.4811855,11.0773548 51.3102984,10.5992097 46.4791694,11.9795323 Z" id="Fill-22" fill="#403B35" mask="url(#mask-3)"></path>
                        <path d="M24.5155777,-2.66453526e-15 C40.0848192,-5.32258065 50.5250992,-7.98387097 55.8364179,-7.98387097 C61.1477366,-7.98387097 71.5143807,-5.32258065 86.9363502,-2.66453526e-15 L77.8111218,42.2271925 C68.5922843,38.2262489 61.3402248,36.2257771 56.0549435,36.2257771 C50.7696621,36.2257771 42.8642639,38.2262489 32.3387491,42.2271925 L24.5155777,-2.66453526e-15 Z" id="Rectangle" fill="#F1F5F6" mask="url(#mask-3)"></path>
                        <path d="M67.2114194,81.7731129 C67.2123065,81.7713387 67.2131935,81.7695645 67.2140806,81.7677903 L66.255129,77.1362581 C66.1992419,76.9269032 66.1167419,76.6785161 65.8080323,76.6785161 L65.8080323,76.6785161 C65.8062581,76.7255323 65.7938387,76.7743226 65.7849677,76.8231129 L65.9313387,73.5124677 C59.9798065,80.2091613 58.3919032,81.0075484 56.199,81.0971452 L54.9996452,81.0962581 L53.8011774,81.0971452 C51.6065,81.0075484 50.0123871,80.2011774 44.0510968,73.4911774 L44.1105323,74.8369032 C44.8539194,76.6625484 45.8856129,78.3631129 47.1807742,79.8614194 C55.0049677,88.9133548 56.6798065,89.867871 59.1237581,89.9681129 L60.3222258,89.9672258 L61.5215806,89.9681129 C63.6257742,89.8820645 65.1702097,89.1475484 70.5504516,83.1711774 L67.2114194,81.7731129 Z" id="Fill-32" fill-opacity="0.136237545" fill="#020203" mask="url(#mask-3)"></path>
                    </g>
                </g>
                <g id="Group" transform="translate(43.467742, 47.016129)">
                    <g id="face_5">
                        <g id="Page-1" transform="translate(0.000000, 0.878788)">
                            <g id="Stroke-3" transform="translate(2.666667, 17.575758)">
                                <mask id="mask-5" fill="white">
                                    <use xlink:href="#path-4"></use>
                                </mask>
                                <use id="Mask" fill="#C49F83" xlink:href="#path-4"></use>
                                <ellipse id="Oval" fill="#FF584C" mask="url(#mask-5)" cx="9.33333333" cy="9.22727273" rx="2.22222222" ry="2.1969697"></ellipse>
                                <ellipse id="Oval-Copy-2" fill="#F1F5F6" mask="url(#mask-5)" cx="7.55555556" cy="-0.439393939" rx="2.22222222" ry="2.1969697"></ellipse>
                                <ellipse id="Oval-Copy-3" fill="#F1F5F6" mask="url(#mask-5)" cx="12" cy="-0.439393939" rx="2.22222222" ry="2.1969697"></ellipse>
                            </g>
                            <path d="M17.5555556,0.659090909 C17.5555556,2.17587879 18.7991111,3.40442424 20.3333333,3.40442424 C21.8684444,3.40442424 23.1111111,2.17587879 23.1111111,0.659090909" id="Stroke-7" stroke="#2E2F31" stroke-linecap="round" stroke-linejoin="round" transform="translate(20.333333, 2.031758) scale(1, -1) translate(-20.333333, -2.031758) "></path>
                            <path d="M0.666666667,0.659090909 C0.666666667,2.17587879 1.91022222,3.40442424 3.44444444,3.40442424 C4.97955556,3.40442424 6.22222222,2.17587879 6.22222222,0.659090909" id="Stroke-7" stroke="#2E2F31" stroke-linecap="round" stroke-linejoin="round" transform="translate(3.444444, 2.031758) scale(1, -1) translate(-3.444444, -2.031758) "></path>
                        </g>
                    </g>
                </g>
            </g>
        </g>
    </g>
</svg>