<?xml version="1.0" encoding="UTF-8"?>
<svg width="26px" height="26px" viewBox="0 0 26 26" version="1.1" xmlns="http://www.w3.org/2000/svg" xmlns:xlink="http://www.w3.org/1999/xlink">
    <!-- Generator: Sketch 46.2 (44496) - http://www.bohemiancoding.com/sketch -->
    <title>Group 11</title>
    <desc>Created with Sketch.</desc>
    <defs></defs>
    <g id="Loyalty-App" stroke="none" stroke-width="1" fill="none" fill-rule="evenodd">
        <g id="hmapp_login-copy-2" transform="translate(-16.000000, -27.000000)">
            <g id="Group-11" transform="translate(16.000000, 27.000000)">
                <circle id="Oval-2" fill="#FFFFFF" cx="13" cy="13" r="13"></circle>
                <path d="M10.8716161,12.0909091 L13.356827,9.48573262 C13.6810577,9.14585073 13.6810577,8.59479331 13.356827,8.25491142 C13.0325963,7.91502953 12.5069145,7.91502953 12.1826838,8.25491142 L8.24317302,12.3845894 C7.91894233,12.7244713 7.91894233,13.2755287 8.24317302,13.6154106 L12.1826838,17.7450886 C12.5069145,18.0849705 13.0325963,18.0849705 13.356827,17.7450886 C13.6810577,17.4052067 13.6810577,16.8541493 13.356827,16.5142674 L10.8716161,13.9090909 L17.2,13.9090909 C17.6418278,13.9090909 18,13.502077 18,13 C18,12.497923 17.6418278,12.0909091 17.2,12.0909091 L10.8716161,12.0909091 Z" id="Combined-Shape" fill="#44474A" fill-rule="nonzero"></path>
            </g>
        </g>
    </g>
</svg>