<svg width="20px" height="25px" viewBox="0 0 20 25" version="1.1" xmlns="http://www.w3.org/2000/svg" xmlns:xlink="http://www.w3.org/1999/xlink">
    <!-- Generator: Sketch 45.2 (43514) - http://www.bohemiancoding.com/sketch -->
    <desc>Created with Sketch.</desc>
    <defs></defs>
    <g id="Loyalty-App" stroke="none" stroke-width="1" fill="none" fill-rule="evenodd">
        <g id="cart_icon_grey" fill-rule="nonzero" fill="#73808D">
            <path d="M2.19491354,8.2173913 L2.89760515,15.7627027 C3.23277287,19.3616424 6.25293226,22.1136045 9.86744529,22.1136045 L10.1088983,22.1136045 C13.7234113,22.1136045 16.7435707,19.3616424 17.0787384,15.7627027 L17.78143,8.2173913 L2.19491354,8.2173913 Z M0,6.2173913 L19.9763435,6.2173913 L19.0701213,15.9481593 C18.6391914,20.5753675 14.7561293,24.1136045 10.1088983,24.1136045 L9.86744529,24.1136045 C5.22021425,24.1136045 1.33715218,20.5753675 0.906222259,15.9481593 L0,6.2173913 Z" id="Rectangle-5-Copy"></path>
            <path d="M6.56451613,12.1068981 L6.56451613,6.77558703 C6.56451613,4.07271236 7.94406155,2 9.40860215,2 L10.566636,2 C12.0311766,2 13.410722,4.07271236 13.410722,6.77558703 L13.410722,12.1068981 L15.410722,12.1068981 L15.410722,6.77558703 C15.410722,3.09892442 13.3481555,0 10.566636,0 L9.40860215,0 C6.62708258,0 4.56451613,3.09892442 4.56451613,6.77558703 L4.56451613,12.1068981 L6.56451613,12.1068981 Z" id="Rectangle-6-Copy"></path>
        </g>
    </g>
</svg>