<svg xmlns="http://www.w3.org/2000/svg" width="26" height="26" viewBox="0 0 26 26">
    <g fill="none" fill-rule="evenodd">
        <circle cx="12.595" cy="12.598" r="12.581" fill="#FFF"/>
        <path fill="#44474A" fill-rule="nonzero" d="M8.304 17.839h9.166c.595 0 1.078-.376 1.078-.839 0-.463-.483-.839-1.078-.839H8.304c-.595 0-1.078.376-1.078.839 0 .463.483.839 1.078.839zM8.304 13.839h9.166c.595 0 1.078-.376 1.078-.839 0-.463-.483-.839-1.078-.839H8.304c-.595 0-1.078.376-1.078.839 0 .463.483.839 1.078.839zM8.304 9.839h9.166c.595 0 1.078-.376 1.078-.839 0-.463-.483-.839-1.078-.839H8.304c-.595 0-1.078.376-1.078.839 0 .463.483.839 1.078.839z"/>
    </g>
</svg>
