<?xml version="1.0" encoding="UTF-8"?>
<svg width="18px" height="18px" viewBox="0 0 18 18" version="1.1" xmlns="http://www.w3.org/2000/svg" xmlns:xlink="http://www.w3.org/1999/xlink">
    <!-- Generator: Sketch 46.2 (44496) - http://www.bohemiancoding.com/sketch -->
    <title>Group 5</title>
    <desc>Created with Sketch.</desc>
    <defs></defs>
    <g id="Loyalty-App" stroke="none" stroke-width="1" fill="none" fill-rule="evenodd">
        <g id="hmapp_login-copy-6" transform="translate(-13.000000, -243.000000)" fill-rule="nonzero" fill="#73808D">
            <g id="Group-5" transform="translate(13.000000, 243.000000)">
                <path d="M9,17 C13.418278,17 17,13.418278 17,9 C17,4.581722 13.418278,1 9,1 C4.581722,1 1,4.581722 1,9 C1,13.418278 4.581722,17 9,17 Z M9,18 C4.02943725,18 0,13.9705627 0,9 C0,4.02943725 4.02943725,0 9,0 C13.9705627,0 18,4.02943725 18,9 C18,13.9705627 13.9705627,18 9,18 Z" id="Button"></path>
                <path d="M9,3.5 C9,3.22385763 8.77614237,3 8.5,3 C8.22385763,3 8,3.22385763 8,3.5 L8,9.57471996 C8,9.85086234 8.22385763,10.07472 8.5,10.07472 L14.1726391,10.07472 C14.4487815,10.07472 14.6726391,9.85086234 14.6726391,9.57471996 C14.6726391,9.29857759 14.4487815,9.07471996 14.1726391,9.07471996 L9,9.07471996 L9,3.5 Z" id="Path-14"></path>
            </g>
        </g>
    </g>
</svg>