<?xml version="1.0" encoding="UTF-8"?>
<svg width="32px" height="32px" viewBox="0 0 32 32" version="1.1" xmlns="http://www.w3.org/2000/svg" xmlns:xlink="http://www.w3.org/1999/xlink">
    <!-- Generator: Sketch 45.2 (43514) - http://www.bohemiancoding.com/sketch -->
    <title>close_icon</title>
    <desc>Created with Sketch.</desc>
    <defs></defs>
    <g id="Loyalty-App" stroke="none" stroke-width="1" fill="none" fill-rule="evenodd">
        <g id="hm_cart_confirm" transform="translate(-330.000000, -27.000000)">
            <g id="close_icon" transform="translate(330.000000, 27.000000)">
                <circle id="Oval-2" fill="#232222" cx="15.9858871" cy="16.0141129" r="15.9858871"></circle>
                <g id="Page-1" transform="translate(9.290323, 9.290323)" fill-rule="nonzero" fill="#FFFFFF">
                    <path d="M6.96774194,4.73371503 L2.77072104,0.536694138 C2.36759919,0.133572288 1.71400954,0.133572288 1.31088769,0.536694138 C0.907765836,0.939815987 0.907765836,1.59340564 1.31088769,1.99652749 L5.50790858,6.19354839 L1.31088769,10.3905693 C0.907765836,10.7936911 0.907765836,11.4472808 1.31088769,11.8504026 C1.71400954,12.2535245 2.36759919,12.2535245 2.77072104,11.8504026 L6.96774194,7.65338174 L11.1647628,11.8504026 C11.5678847,12.2535245 12.2214743,12.2535245 12.6245962,11.8504026 C13.027718,11.4472808 13.027718,10.7936911 12.6245962,10.3905693 L8.42757529,6.19354839 L12.6245962,1.99652749 C13.027718,1.59340564 13.027718,0.939815987 12.6245962,0.536694138 C12.2214743,0.133572288 11.5678847,0.133572288 11.1647628,0.536694138 L6.96774194,4.73371503 Z" id="Combined-Shape"></path>
                </g>
            </g>
        </g>
    </g>
</svg>