<?xml version="1.0" encoding="UTF-8"?>
<svg width="26px" height="16px" viewBox="0 0 26 16" version="1.1" xmlns="http://www.w3.org/2000/svg" xmlns:xlink="http://www.w3.org/1999/xlink">
    <!-- Generator: Sketch 45.2 (43514) - http://www.bohemiancoding.com/sketch -->
    <title>delivry</title>
    <desc>Created with Sketch.</desc>
    <defs></defs>
    <g id="Loyalty-App" stroke="none" stroke-width="1" fill="none" fill-rule="evenodd">
        <g id="Artboard-3" transform="translate(-24.000000, -165.000000)" fill-rule="nonzero" fill="#FFFFFF">
            <g id="delivry" transform="translate(24.000000, 165.278227)">
                <path d="M4.91666667,2.08844 L20.2608928,2.08844 L21.5584159,5.05072128 C21.6339101,5.22307669 21.7565008,5.37063527 21.9121,5.47644 L23.5643,6.59990666 C23.6169666,6.63578818 23.6333333,6.65815079 23.6333333,6.53124 L23.6333333,12.00364 L22.7061333,12.00364 C22.1538486,12.00364 21.7061333,12.4513553 21.7061333,13.00364 C21.7061333,13.5559247 22.1538486,14.00364 22.7061333,14.00364 L24.6333333,14.00364 C25.1856181,14.00364 25.6333333,13.5559247 25.6333333,13.00364 L25.6333333,6.53124 C25.6333333,5.86302273 25.2340199,5.31742243 24.6896369,4.94654155 L23.2748417,3.98450553 L21.8305841,0.687225391 C21.6712453,0.323450518 21.311741,0.08844 20.9146,0.08844 L3.91666667,0.08844 C3.36438192,0.08844 2.91666667,0.53615525 2.91666667,1.08844 L2.91666667,2.28304 C2.91666667,2.83532475 3.36438192,3.28304 3.91666667,3.28304 C4.46895142,3.28304 4.91666667,2.83532475 4.91666667,2.28304 L4.91666667,2.08844 Z" id="Stroke-2"></path>
                <path d="M10.7263267,13.9166667 L19.1229933,13.9166667 C19.6752781,13.9166667 20.1229933,13.4689514 20.1229933,12.9166667 C20.1229933,12.3643819 19.6752781,11.9166667 19.1229933,11.9166667 L10.7263267,11.9166667 C10.1740419,11.9166667 9.72632667,12.3643819 9.72632667,12.9166667 C9.72632667,13.4689514 10.1740419,13.9166667 10.7263267,13.9166667 Z" id="Stroke-4"></path>
                <path d="M20.9148933,15.75 C19.3748086,15.75 18.12336,14.4985514 18.12336,12.9584667 C18.12336,11.4183819 19.3748086,10.1669333 20.9148933,10.1669333 C22.4549781,10.1669333 23.7064267,11.4183819 23.7064267,12.9584667 C23.7064267,14.4985514 22.4549781,15.75 20.9148933,15.75 Z M20.9148933,13.75 C21.3504086,13.75 21.7064267,13.3939819 21.7064267,12.9584667 C21.7064267,12.5229514 21.3504086,12.1669333 20.9148933,12.1669333 C20.4793781,12.1669333 20.12336,12.5229514 20.12336,12.9584667 C20.12336,13.3939819 20.4793781,13.75 20.9148933,13.75 Z" id="Stroke-6"></path>
                <path d="M8.93479333,15.75 C7.39470858,15.75 6.14326,14.4985514 6.14326,12.9584667 C6.14326,11.4183819 7.39470858,10.1669333 8.93479333,10.1669333 C10.4748781,10.1669333 11.7263267,11.4183819 11.7263267,12.9584667 C11.7263267,14.4985514 10.4748781,15.75 8.93479333,15.75 Z M8.93479333,13.75 C9.37030858,13.75 9.72632667,13.3939819 9.72632667,12.9584667 C9.72632667,12.5229514 9.37030858,12.1669333 8.93479333,12.1669333 C8.49927808,12.1669333 8.14326,12.5229514 8.14326,12.9584667 C8.14326,13.3939819 8.49927808,13.75 8.93479333,13.75 Z" id="Stroke-8"></path>
                <path d="M6.22681333,8.05 L2.9308152,8.05 C2.37853045,8.05 1.9308152,8.49771525 1.9308152,9.05 C1.9308152,9.60228475 2.37853045,10.05 2.9308152,10.05 L6.22681333,10.05 C6.77909808,10.05 7.22681333,9.60228475 7.22681333,9.05 C7.22681333,8.49771525 6.77909808,8.05 6.22681333,8.05 Z" id="Stroke-10"></path>
                <path d="M0.99974739,6.66666667 L7.0106,6.66666667 C7.56288475,6.66666667 8.0106,6.21895142 8.0106,5.66666667 C8.0106,5.11438192 7.56288475,4.66666667 7.0106,4.66666667 L0.99974739,4.66666667 C0.44746264,4.66666667 -0.000252610463,5.11438192 -0.000252610463,5.66666667 C-0.000252610463,6.21895142 0.44746264,6.66666667 0.99974739,6.66666667 Z" id="Stroke-12"></path>
                <path d="M4.89393333,11.7432577 C4.89393333,11.190973 4.44621808,10.7432577 3.89393333,10.7432577 C3.34164858,10.7432577 2.89393333,11.190973 2.89393333,11.7432577 L2.89393333,12.9581733 C2.89393333,13.5104581 3.34164858,13.9581733 3.89393333,13.9581733 L6.22666667,13.9581733 C6.77895142,13.9581733 7.22666667,13.5104581 7.22666667,12.9581733 C7.22666667,12.4058886 6.77895142,11.9581733 6.22666667,11.9581733 L4.89393333,11.9581733 L4.89393333,11.7432577 Z" id="Stroke-1"></path>
            </g>
        </g>
    </g>
</svg>