<?xml version="1.0" encoding="UTF-8"?>
<svg width="37px" height="36px" viewBox="0 0 37 36" version="1.1" xmlns="http://www.w3.org/2000/svg" xmlns:xlink="http://www.w3.org/1999/xlink">
    <!-- Generator: Sketch 46.2 (44496) - http://www.bohemiancoding.com/sketch -->
    <title>filled_star</title>
    <desc>Created with Sketch.</desc>
    <defs></defs>
    <g id="Loyalty-App" stroke="none" stroke-width="1" fill="none" fill-rule="evenodd">
        <g id="hmapp_login-copy-2" transform="translate(-100.000000, -414.000000)" fill="#F8CD1C">
            <g id="stars" transform="translate(42.000000, 414.000000)">
                <g id="filled_star" transform="translate(58.620690, 0.000000)">
                    <path d="M28.4489373,35.9888301 C29.2054434,35.8916848 29.7437266,35.1706506 29.6502025,34.3783764 C29.6481241,34.3575082 27.8801722,23.1087985 27.8801722,23.1087985 L35.5914077,15.1227328 C36.1331547,14.5614486 36.1366186,13.6468433 35.6004137,13.0798024 C35.3925824,12.8603259 35.1237872,12.7164069 34.8321305,12.6689137 L24.0990273,10.9526795 L19.2336957,0.796315092 C18.890774,0.0831964073 18.0608341,-0.203922014 17.3798401,0.154436316 C17.1152015,0.294037754 16.9004425,0.518551407 16.7667377,0.796315092 L11.901406,10.9526795 L1.16830278,12.6689137 C0.414567786,12.7919644 -0.100853939,13.5302689 0.0169171542,14.3189451 C0.061947278,14.6240534 0.199808734,14.905415 0.409025617,15.1227328 L8.12026112,23.1087985 L6.35854412,34.3150521 C6.23176701,35.102289 6.73887548,35.8470699 7.49053216,35.980195 C7.78911652,36.0327254 8.09601413,35.9809146 8.36411656,35.832678 L17.9998703,30.6127356 L27.6363168,35.832678 C27.8857144,35.9708403 28.1690578,36.0248099 28.4489373,35.9888301 Z" id="Fill-1"></path>
                </g>
            </g>
        </g>
    </g>
</svg>