<svg xmlns="http://www.w3.org/2000/svg" width="26" height="26" viewBox="0 0 26 26">
    <g fill="none" fill-rule="evenodd">
        <circle cx="12.989" cy="12.989" r="12.989" fill="#FFF"/>
        <g fill="#3D4049" fill-rule="nonzero">
            <path d="M13.35 16.571H7.386a.69.69 0 0 0 0 1.382h5.964a.69.69 0 0 0 0-1.382zM18.793 16.571H15.98a.69.69 0 0 0 0 1.382h2.812a.69.69 0 0 0 0-1.382z"/>
            <path d="M14.666 19.39a2.006 2.006 0 1 1 0-4.012 2.006 2.006 0 0 1 0 4.013zM16.687 10.529a2.006 2.006 0 1 1 0-4.012 2.006 2.006 0 0 1 0 4.012zM10.472 14.95a2.006 2.006 0 1 1 0-4.013 2.006 2.006 0 0 1 0 4.012z"/>
            <path d="M15.372 7.79H7.386a.69.69 0 0 0 0 1.38h7.986a.69.69 0 0 0 0-1.38zM18.793 7.79h-.79a.69.69 0 0 0 0 1.38h.79a.69.69 0 1 0 0-1.38zM9.157 11.934h-1.77a.69.69 0 0 0 0 1.381h1.77a.69.69 0 0 0 0-1.381zM18.793 11.934h-7.006a.69.69 0 0 0 0 1.381h7.006a.69.69 0 1 0 0-1.381z"/>
        </g>
    </g>
</svg>
