<?xml version="1.0" encoding="UTF-8"?>
<svg width="32px" height="32px" viewBox="0 0 32 32" version="1.1" xmlns="http://www.w3.org/2000/svg" xmlns:xlink="http://www.w3.org/1999/xlink">
    <!-- Generator: Sketch 45.2 (43514) - http://www.bohemiancoding.com/sketch -->
    <title>Group 5</title>
    <desc>Created with Sketch.</desc>
    <defs></defs>
    <g id="Loyalty-App" stroke="none" stroke-width="1" fill="none" fill-rule="evenodd">
        <g id="hm_category" transform="translate(-329.000000, -24.000000)">
            <g id="Group-5" transform="translate(329.000000, 24.000000)">
                <circle id="Oval-2" fill-opacity="0.13708673" fill="#232222" cx="15.9858871" cy="16.0141129" r="15.9858871"></circle>
                <g id="filter" transform="translate(15.483871, 15.483871) rotate(-270.000000) translate(-15.483871, -15.483871) translate(8.258065, 8.258065)" fill-rule="nonzero" fill="#FFFFFF">
                    <path d="M11.7798861,6.95324903 L11.7798861,14.2939883 C11.7798861,14.7634827 12.1604866,15.1440832 12.629981,15.1440832 C13.0994755,15.1440832 13.4800759,14.7634827 13.4800759,14.2939883 L13.4800759,6.95324903 C13.4800759,6.4837546 13.0994755,6.10315416 12.629981,6.10315416 C12.1604866,6.10315416 11.7798861,6.4837546 11.7798861,6.95324903 Z" id="Stroke-1"></path>
                    <path d="M11.7798861,0.255028463 L11.7798861,3.71525465 C11.7798861,4.18474909 12.1604866,4.56534953 12.629981,4.56534953 C13.0994755,4.56534953 13.4800759,4.18474909 13.4800759,3.71525465 L13.4800759,0.255028463 C13.4800759,-0.214465973 13.0994755,-0.595066414 12.629981,-0.595066414 C12.1604866,-0.595066414 11.7798861,-0.214465973 11.7798861,0.255028463 Z" id="Stroke-3"></path>
                    <path d="M13.5496962,5.33437935 C13.5496962,4.909744 13.2055058,4.56555355 12.7808704,4.56555355 C12.3562351,4.56555355 12.0120446,4.909744 12.0120446,5.33437935 C12.0120446,5.75901471 12.3562351,6.10320516 12.7808704,6.10320516 C13.2055058,6.10320516 13.5496962,5.75901471 13.5496962,5.33437935 Z M15.249886,5.33437935 C15.249886,6.69800358 14.1444947,7.80339491 12.7808704,7.80339491 C11.4172462,7.80339491 10.3118549,6.69800358 10.3118549,5.33437935 C10.3118549,3.97075513 11.4172462,2.8653638 12.7808704,2.8653638 C14.1444947,2.8653638 15.249886,3.97075513 15.249886,5.33437935 Z" id="Stroke-5"></path>
                    <path d="M2.64272395,2.84632167 C2.64272395,2.42168631 2.2985335,2.07749586 1.87389814,2.07749586 C1.44926279,2.07749586 1.10507233,2.42168631 1.10507233,2.84632167 C1.10507233,3.27095702 1.44926279,3.61514748 1.87389814,3.61514748 C2.2985335,3.61514748 2.64272395,3.27095702 2.64272395,2.84632167 Z M4.3429137,2.84632167 C4.3429137,4.2099459 3.23752237,5.31533723 1.87389814,5.31533723 C0.510273913,5.31533723 -0.595117419,4.2099459 -0.595117419,2.84632167 C-0.595117419,1.48269744 0.510273913,0.37730611 1.87389814,0.37730611 C3.23752237,0.37730611 4.3429137,1.48269744 4.3429137,2.84632167 Z" id="Stroke-7"></path>
                    <path d="M8.08333116,10.4960024 C8.08333116,10.0713671 7.73914071,9.72717662 7.31450535,9.72717662 C6.88987,9.72717662 6.54567954,10.0713671 6.54567954,10.4960024 C6.54567954,10.9206378 6.88987,11.2648282 7.31450535,11.2648282 C7.73914071,11.2648282 8.08333116,10.9206378 8.08333116,10.4960024 Z M9.78352091,10.4960024 C9.78352091,11.8596267 8.67812958,12.965018 7.31450535,12.965018 C5.95088112,12.965018 4.84548979,11.8596267 4.84548979,10.4960024 C4.84548979,9.1323782 5.95088112,8.02698687 7.31450535,8.02698687 C8.67812958,8.02698687 9.78352091,9.1323782 9.78352091,10.4960024 Z" id="Stroke-9"></path>
                    <path d="M0.971537002,4.46529336 L0.971537002,14.2940903 C0.971537002,14.7635848 1.35213744,15.1441852 1.82163188,15.1441852 C2.29112631,15.1441852 2.67172676,14.7635848 2.67172676,14.2940903 L2.67172676,4.46529336 C2.67172676,3.99579892 2.29112631,3.61519848 1.82163188,3.61519848 C1.35213744,3.61519848 0.971537002,3.99579892 0.971537002,4.46529336 Z" id="Stroke-11"></path>
                    <path d="M0.971537002,0.255028463 L0.971537002,1.22719696 C0.971537002,1.6966914 1.35213744,2.07729184 1.82163188,2.07729184 C2.29112631,2.07729184 2.67172676,1.6966914 2.67172676,1.22719696 L2.67172676,0.255028463 C2.67172676,-0.214465973 2.29112631,-0.595066414 1.82163188,-0.595066414 C1.35213744,-0.595066414 0.971537002,-0.214465973 0.971537002,0.255028463 Z" id="Stroke-13"></path>
                    <path d="M6.07210626,12.1149231 L6.07210626,14.2938863 C6.07210626,14.7633807 6.4527067,15.1439812 6.92220114,15.1439812 C7.39169557,15.1439812 7.77229602,14.7633807 7.77229602,14.2938863 L7.77229602,12.1149231 C7.77229602,11.6454287 7.39169557,11.2648282 6.92220114,11.2648282 C6.4527067,11.2648282 6.07210626,11.6454287 6.07210626,12.1149231 Z" id="Stroke-15"></path>
                    <path d="M6.07210626,0.255028463 L6.07210626,8.87703074 C6.07210626,9.34652518 6.4527067,9.72712562 6.92220114,9.72712562 C7.39169557,9.72712562 7.77229602,9.34652518 7.77229602,8.87703074 L7.77229602,0.255028463 C7.77229602,-0.214465973 7.39169557,-0.595066414 6.92220114,-0.595066414 C6.4527067,-0.595066414 6.07210626,-0.214465973 6.07210626,0.255028463 Z" id="Stroke-17"></path>
                </g>
            </g>
        </g>
    </g>
</svg>