<?xml version="1.0" encoding="UTF-8"?>
<svg width="126px" height="18px" viewBox="0 0 126 18" version="1.1" xmlns="http://www.w3.org/2000/svg" xmlns:xlink="http://www.w3.org/1999/xlink">
    <!-- Generator: Sketch 45.2 (43514) - http://www.bohemiancoding.com/sketch -->
    <title>Hatimaki</title>
    <desc>Created with Sketch.</desc>
    <defs></defs>
    <g id="Loyalty-App" stroke="none" stroke-width="1" fill="none" fill-rule="evenodd">
        <g id="Menu-#1" transform="translate(-47.000000, -98.000000)" fill-rule="nonzero" fill="#FFFFFF">
            <path d="M55.5689941,104.756322 L55.5689941,100.118367 C55.5689941,98.9460358 56.51503,98 57.6873608,98 C58.8596916,98 59.8057274,98.9460358 59.8057274,100.118367 L59.8057274,113.772258 C59.8057274,114.944589 58.8596916,115.890625 57.6873608,115.890625 C56.51503,115.890625 55.5689941,114.944589 55.5689941,113.772258 L55.5689941,108.663479 L51.2367332,108.663479 L51.2367332,113.772258 C51.2367332,114.944589 50.2906974,115.890625 49.1183666,115.890625 C47.9460358,115.890625 47,114.944589 47,113.772258 L47,100.118367 C47,98.9460358 47.9460358,98 49.1183666,98 C50.2906974,98 51.2367332,98.9460358 51.2367332,100.118367 L51.2367332,104.756322 L55.5689941,104.756322 Z M68.7599981,114.388403 C68.4553806,115.268409 67.6638852,115.890625 66.7210725,115.890625 C65.5487417,115.890625 64.6027059,114.944589 64.6027059,113.772258 C64.6027059,113.493011 64.6570491,113.248467 64.7783551,112.914897 L69.4636159,99.8244267 C69.8621193,98.720879 70.8260853,98 71.9942997,98 C73.162514,98 74.1264801,98.720879 74.5255468,99.8259939 L79.2092334,112.912095 C79.3315502,113.248467 79.3858934,113.493011 79.3858934,113.772258 C79.3858934,114.944589 78.4398576,115.890625 77.2675268,115.890625 C76.311442,115.890625 75.5149084,115.264448 75.2264265,114.382002 L74.4259735,111.980642 L71.9942411,104.678573 L68.7599981,114.388403 Z M83.3115074,102.024863 C82.2266825,102.024863 81.3579291,101.166451 81.3579291,100.071284 C81.3579291,98.9931182 82.2333414,98.117706 83.3115074,98.117706 L92.6338197,98.117706 C93.7119857,98.117706 94.587398,98.9931182 94.587398,100.071284 C94.587398,101.166451 93.7186446,102.024863 92.6338197,102.024863 L90.0910302,102.024863 L90.0910302,113.772258 C90.0910302,114.944589 89.1449944,115.890625 87.9726636,115.890625 C86.8003327,115.890625 85.8542969,114.944589 85.8542969,113.772258 L85.8542969,102.024863 L83.3115074,102.024863 Z M103.550487,100.118367 L103.550487,113.772258 C103.550487,114.944589 102.604451,115.890625 101.43212,115.890625 C100.259789,115.890625 99.3137533,114.944589 99.3137533,113.772258 L99.3137533,100.118367 C99.3137533,98.9460358 100.259789,98 101.43212,98 C102.604451,98 103.550487,98.9460358 103.550487,100.118367 Z M119.878574,110.432565 C119.403561,111.287587 118.702189,111.747375 117.740062,111.747375 C116.773089,111.747375 116.056803,111.280404 115.599533,110.428905 L113.926048,107.365575 L113.926048,113.772258 C113.926048,114.944589 112.980012,115.890625 111.807681,115.890625 C110.63535,115.890625 109.689314,114.944589 109.689314,113.772258 L109.689314,100.071284 C109.689314,98.9224946 110.611809,98 111.760599,98 C112.691142,98 113.405108,98.4785089 113.948568,99.4839163 L117.740062,106.445347 L121.530666,99.4855548 C122.075015,98.4785089 122.788981,98 123.719525,98 C124.868314,98 125.790809,98.9224946 125.790809,100.071284 L125.790809,113.772258 C125.790809,114.944589 124.844773,115.890625 123.672442,115.890625 C122.500111,115.890625 121.554075,114.944589 121.554075,113.772258 L121.554075,107.365563 L119.878574,110.432565 Z M134.745079,114.388403 C134.440461,115.268409 133.648966,115.890625 132.706153,115.890625 C131.533823,115.890625 130.587787,114.944589 130.587787,113.772258 C130.587787,113.493011 130.64213,113.248467 130.763436,112.914897 L135.448697,99.8244267 C135.8472,98.720879 136.811166,98 137.97938,98 C139.147595,98 140.111561,98.720879 140.510628,99.8259939 L145.194314,112.912095 C145.316631,113.248467 145.370974,113.493011 145.370974,113.772258 C145.370974,114.944589 144.424938,115.890625 143.252608,115.890625 C142.296523,115.890625 141.499989,115.264448 141.211507,114.382002 L140.411332,111.981473 L137.979615,104.715549 L134.745079,114.388403 Z M154.404686,109.640904 L154.404686,113.772258 C154.404686,114.944589 153.45865,115.890625 152.286319,115.890625 C151.113989,115.890625 150.167953,114.944589 150.167953,113.772258 L150.167953,100.118367 C150.167953,98.9460358 151.113989,98 152.286319,98 C153.45865,98 154.404686,98.9460358 154.404686,100.118367 L154.404686,104.772883 L155.000622,104.3818 C157.270987,102.893212 158.018321,101.818395 158.149912,100.052919 C158.231662,98.908416 159.144962,98 160.290325,98 C161.439101,98 162.408692,98.9338688 162.408692,100.071284 L162.407693,100.176161 C162.250022,102.87909 161.176443,104.855884 159.062178,106.517877 L163.090525,112.604219 C163.312559,112.945809 163.444504,113.362927 163.444504,113.772258 C163.444504,114.944589 162.498468,115.890625 161.326137,115.890625 C160.528658,115.890625 159.894223,115.475803 159.442847,114.773661 L155.620571,108.844789 L154.404686,109.640904 Z M172.76071,100.118367 L172.76071,113.772258 C172.76071,114.944589 171.814674,115.890625 170.642344,115.890625 C169.470013,115.890625 168.523977,114.944589 168.523977,113.772258 L168.523977,100.118367 C168.523977,98.9460358 169.470013,98 170.642344,98 C171.814674,98 172.76071,98.9460358 172.76071,100.118367 Z" id="Hatimaki"></path>
        </g>
    </g>
</svg>