<svg xmlns="http://www.w3.org/2000/svg" width="30" height="30" viewBox="0 0 30 30">
    <g fill="none" fill-rule="evenodd">
        <circle cx="15" cy="15.027" r="15" fill="#232222" opacity=".5"/>
        <path fill="#FFF" d="M12.54 11.808c-.632 0-1.227.255-1.676.717-.941.97-.941 2.546 0 3.515l2.966 3.055a2.321 2.321 0 0 0 1.675.717c.632 0 1.227-.255 1.676-.717l2.966-3.055c.941-.97.941-2.546 0-3.515a2.321 2.321 0 0 0-1.676-.717 2.32 2.32 0 0 0-1.675.717l-.765.788a.755.755 0 0 1-1.052 0l-.764-.788a2.321 2.321 0 0 0-1.675-.717m2.965 9.47c-1.031 0-2-.413-2.727-1.162L9.812 17.06c-1.488-1.532-1.488-4.025 0-5.557a3.775 3.775 0 0 1 2.728-1.162c1.031 0 2 .413 2.727 1.162l.238.246.239-.246a3.774 3.774 0 0 1 2.727-1.162c1.032 0 2 .413 2.728 1.162 1.488 1.532 1.488 4.025 0 5.557l-2.966 3.055a3.775 3.775 0 0 1-2.728 1.162"/>
    </g>
</svg>
