<svg xmlns="http://www.w3.org/2000/svg" width="26" height="26" viewBox="0 0 26 26">
    <g fill="none" fill-rule="evenodd">
        <circle cx="13" cy="13" r="13" fill="#FFF"/>
        <path fill="#FF003E" d="M10.094 10.27c-.563 0-1.093.226-1.493.638a2.264 2.264 0 0 0 0 3.132l2.643 2.721c.4.412.93.64 1.493.64.563 0 1.093-.228 1.493-.64l2.642-2.721a2.264 2.264 0 0 0 0-3.132c-.4-.412-.93-.639-1.493-.639-.562 0-1.093.227-1.493.64l-.68.7a.672.672 0 0 1-.938 0l-.68-.7c-.4-.413-.931-.64-1.494-.64m2.643 8.437c-.92 0-1.783-.367-2.43-1.035l-2.643-2.722c-1.325-1.365-1.325-3.586 0-4.95a3.363 3.363 0 0 1 2.43-1.036c.92 0 1.782.368 2.43 1.036l.213.218.212-.219a3.363 3.363 0 0 1 2.43-1.035c.92 0 1.783.368 2.43 1.035 1.326 1.365 1.326 3.586 0 4.951l-2.642 2.722a3.364 3.364 0 0 1-2.43 1.035"/>
    </g>
</svg>
