<?xml version="1.0" encoding="UTF-8"?>
<svg width="100px" height="100px" viewBox="0 0 100 100" version="1.1" xmlns="http://www.w3.org/2000/svg" xmlns:xlink="http://www.w3.org/1999/xlink">
    <!-- Generator: Sketch 46.2 (44496) - http://www.bohemiancoding.com/sketch -->
    <title>like</title>
    <desc>Created with Sketch.</desc>
    <defs></defs>
    <g id="Loyalty-App" stroke="none" stroke-width="1" fill="none" fill-rule="evenodd">
        <g id="hmapp_login-copy" transform="translate(-137.000000, -181.000000)">
            <g id="like" transform="translate(137.000000, 181.000000)">
                <path d="M50,96.0784314 C75.4484149,96.0784314 96.0784314,75.4484149 96.0784314,50 C96.0784314,24.5515851 75.4484149,3.92156863 50,3.92156863 C24.5515851,3.92156863 3.92156863,24.5515851 3.92156863,50 C3.92156863,75.4484149 24.5515851,96.0784314 50,96.0784314 Z M50,100 C22.3857625,100 0,77.6142375 0,50 C0,22.3857625 22.3857625,0 50,0 C77.6142375,0 100,22.3857625 100,50 C100,77.6142375 77.6142375,100 50,100 Z" id="Oval" fill="#FF003E" fill-rule="nonzero"></path>
                <path d="M28.8058292,71.7123641 C28.8366934,71.6345863 28.8718786,71.5580431 28.9107675,71.4839691 C28.6021255,70.8666851 29.0157058,70.2494012 29.2934835,69.6321172 C29.4045947,69.3790308 29.8366934,69.1321172 30.8058292,68.9284135 C31.1885453,68.8605123 31.579286,68.8463147 31.9663231,68.8852036 C32.1539774,68.8858209 32.3397798,68.9191542 32.5157058,68.9839691 C32.2873107,69.7123641 32.9107675,70.4531049 31.8305206,71.1753271 C31.9910144,71.5734752 32.1089156,71.9870555 32.1823724,72.409895 C32.1570638,72.68829 32.0447181,72.9518703 31.8613848,73.1629814 C31.4101502,73.3790308 30.9076811,73.464216 30.4107675,73.409895 C29.5527428,73.409895 29.120644,73.3049567 29.0095329,73.1691542 C28.6675576,72.7629814 28.5885453,72.196932 28.8058292,71.7123641 M67.3860761,67.4901419 C67.2150885,67.6166851 67.0311379,67.7240925 66.8366934,67.8111296 C66.737928,67.8518703 66.6373107,67.8870555 66.5342243,67.9160678 L66.3675576,67.9592777 L66.0897798,68.0210061 L63.892249,68.5086604 L59.5218786,69.5210061 L55.1576811,70.5271789 L52.9539774,71.0580431 C52.2194095,71.2308826 51.5774342,71.3543394 50.8799033,71.4716234 C48.1360761,71.901253 45.3397798,71.864216 42.6082984,71.3605123 C41.7459527,71.2314999 40.8755823,71.1635987 40.0033601,71.1568086 C39.2132366,67.8790308 38.3737305,64.6074259 37.5712613,61.3358209 C37.1774342,57.2549567 36.5237305,53.2037221 35.6144712,49.2061913 L35.6761996,49.2061913 C36.5082984,48.7500184 37.2305206,48.1179197 37.7934835,47.3543394 C38.1521255,46.8586604 38.44657,46.3191542 38.6700268,45.7494012 C38.7897798,45.455574 38.8910144,45.1549567 38.9724959,44.8481666 L39.1885453,44.0210061 C40.7070638,37.9716234 42.2441008,31.8790308 43.6947181,25.7802654 C43.7163231,25.6870555 43.7286687,25.5919938 43.7317551,25.4963147 L43.7317551,25.4531049 C43.7570638,24.9222407 44.0348416,24.4358209 44.4786687,24.1444629 C45.242249,23.6494012 46.2632366,23.8666851 46.7582984,24.6302654 C46.8391626,24.755574 46.9033601,24.8913765 46.9478045,25.0333518 L47.737928,34.0210061 L48.1515082,38.6321172 L48.2564465,39.7864382 L48.2564465,40.0765617 L48.2564465,40.3234752 C48.270644,40.4234752 48.2910144,40.5222407 48.3181749,40.6197715 C48.6502737,41.8666851 49.8138539,42.7080431 51.1021255,42.6321172 C51.2027428,42.6389073 51.3039774,42.6389073 51.4045947,42.6321172 L51.5527428,42.6321172 L51.6329897,42.6321172 L51.9169403,42.5703888 L52.4786687,42.4407592 L61.5033601,40.3790308 L66.0157058,39.3481666 L68.274965,38.8358209 L69.4045947,38.5765617 C69.6144712,38.5271789 69.7194095,38.5148333 69.8613848,38.4839691 C69.9990391,38.4753271 70.1373107,38.4753271 70.274965,38.4839691 C70.1805206,38.4444629 70.083607,38.4111296 69.9848416,38.3852036 C70.0866934,38.4006357 70.1848416,38.4339691 70.274965,38.4839691 C71.0502737,38.5352036 71.7774342,38.8765617 72.3120021,39.4407592 C72.7996564,39.968537 73.0453354,40.6753271 72.9910144,41.3913765 C72.9181749,42.0531049 72.5959527,42.6623641 72.0897798,43.0950802 C71.833607,43.3135987 71.5354589,43.4777962 71.2132366,43.5765617 C70.9848416,43.6506357 70.3243477,43.7679197 69.8058292,43.8666851 C68.9126193,44.0432283 68.3323724,44.9105123 68.5089156,45.8031049 C68.6212613,46.3703888 69.0218786,46.8370555 69.5650885,47.0333518 L69.6576811,47.064216 C70.2107675,47.2629814 70.674965,47.6524876 70.9663231,48.1629814 C71.2453354,48.6574259 71.3373107,49.2358209 71.2255823,49.792611 C71.0984218,50.3475493 70.779286,50.8395246 70.3243477,51.1814999 C70.0934835,51.3574259 69.8348416,51.4932283 69.5589156,51.5827345 C69.3737305,51.6506357 68.7934835,51.7617468 68.3243477,51.8605123 C67.3317551,52.1074259 66.7274342,53.1123641 66.9743477,54.1043394 C67.1212613,54.6963147 67.5502737,55.1771789 68.120644,55.3913765 L68.1638539,55.3913765 C68.6805206,55.568537 69.1175576,55.922858 69.3984218,56.3913765 C69.6724959,56.8537221 69.7712613,57.3994012 69.6761996,57.9284135 C69.5638539,58.4654505 69.2638539,58.9444629 68.8305206,59.2802654 C68.6101502,59.4549567 68.3620021,59.5907592 68.0959527,59.6814999 C67.9231132,59.7494012 67.3366934,59.8666851 66.8613848,59.9654505 C65.8459527,60.1895246 65.2045947,61.1944629 65.429286,62.209895 C65.574965,62.8691542 66.0626193,63.4000184 66.7070638,63.601253 C67.4971872,63.8531049 68.083607,64.5203888 68.2317551,65.3358209 C68.3799033,66.1561913 68.0527428,66.9895246 67.3860761,67.4901419 M72.392249,35.7432283 C71.7459527,35.5117468 71.0663231,35.38829 70.3799033,35.3790308 C70.0366934,35.3703888 69.6941008,35.3932283 69.3552119,35.446932 C69.200891,35.446932 68.9848416,35.5086604 68.8799033,35.5333518 L68.5218786,35.6135987 L65.6700268,36.2308826 L59.9724959,37.5395246 L52.620644,39.0580431 L51.5033601,39.2864382 L51.5033601,38.9901419 L51.1021255,34.1753271 L50.392249,24.5333518 C50.3823724,24.4247098 50.3638539,24.3179197 50.3366934,24.2123641 C50.0286687,23.0105123 49.2934835,21.9617468 48.2687922,21.2617468 C47.250891,20.5679197 46.0175576,20.2635987 44.7934835,20.4037221 C42.3459527,20.6901419 40.4570638,22.6907592 40.3120021,25.1506357 C38.9373107,31.2907592 37.620644,37.4302654 36.3613848,43.5703888 C36.2823724,44.0333518 36.174965,44.4907592 36.0403971,44.9407592 C35.9138539,45.322858 35.7527428,45.692611 35.5589156,46.0456975 C35.4224959,46.2889073 35.2718786,46.5240925 35.1082984,46.7494012 L34.620644,44.5765617 C34.3971872,43.5784135 33.4064465,42.9506357 32.4089156,43.1740925 C32.4070638,43.1747098 32.4058292,43.1753271 32.4045947,43.1753271 C29.7811379,43.792611 27.1515082,44.3481666 24.5157058,44.8481666 C24.1033601,44.9833518 23.7521255,45.2580431 23.5218786,45.6259444 C23.2626193,46.1506357 23.8120021,46.4345863 24.5650885,46.5765617 C26.9397798,46.9413765 29.3576811,46.9203888 31.7255823,46.5148333 C32.8243477,52.8234752 33.8552119,59.1506357 35.5033601,65.3790308 L35.9539774,67.9284135 C36.4416317,70.5395246 36.9601502,73.13829 37.5342243,75.7247098 C36.0095329,76.101253 34.4971872,76.5024876 32.9910144,76.9592777 C31.4848416,77.4160678 30.3366934,78.0950802 30.6329897,78.909895 C30.929286,79.7247098 32.0897798,79.9345863 33.6638539,79.7000184 C35.8058292,79.3605123 37.9848416,79.0271789 40.1082984,78.6135987 C40.9286687,78.4518703 41.4644712,77.6568086 41.3058292,76.8358209 L41.3058292,76.7679197 C41.1743477,76.0932283 41.0342243,75.4179197 40.8860761,74.7432283 C40.7070638,73.9531049 40.5218786,73.1568086 40.3305206,72.3666851 C40.6576811,72.5271789 41.0280514,72.6876728 41.4416317,72.8419938 C44.9990391,74.1154505 48.8169403,74.4870555 52.5527428,73.9222407 C56.4910144,73.3049567 60.5280514,72.4839691 64.6144712,71.6074259 L66.2502737,71.2679197 L67.0712613,71.101253 C67.4274342,71.0247098 67.7768169,70.9173024 68.1144712,70.7802654 C69.5033601,70.2111296 70.6120021,69.1179197 71.200891,67.7370555 C71.4947181,67.0339691 71.633607,66.2759444 71.6082984,65.5148333 C71.5854589,64.7580431 71.4064465,64.014216 71.083607,63.3296481 C70.9144712,62.9771789 70.7076811,62.6438456 70.4663231,62.3358209 C70.6453354,62.2259444 70.8187922,62.1061913 70.9848416,61.9777962 C73.2681749,60.242611 73.8799033,57.0666851 72.4045947,54.6074259 C72.3243477,54.4654505 72.2317551,54.3358209 72.1391626,54.2000184 C72.2687922,54.1135987 72.3984218,54.0271789 72.5157058,53.9284135 C74.8521255,52.1419938 75.4669403,48.8814999 73.9416317,46.3666851 C73.8799033,46.2617468 73.8058292,46.1568086 73.737928,46.0580431 L73.9601502,45.9037221 C76.2978045,44.1284135 76.9675576,40.9006357 75.5280514,38.3419938 C74.8224959,37.1327345 73.7113848,36.2123641 72.392249,35.7432283" id="Fill-1" fill="#FFFFFF"></path>
            </g>
        </g>
    </g>
</svg>