<?xml version="1.0" encoding="UTF-8"?>
<svg width="38px" height="38px" viewBox="0 0 38 38" version="1.1" xmlns="http://www.w3.org/2000/svg" xmlns:xlink="http://www.w3.org/1999/xlink">
    <!-- Generator: Sketch 46.2 (44496) - http://www.bohemiancoding.com/sketch -->
    <title>line_star</title>
    <desc>Created with Sketch.</desc>
    <defs></defs>
    <g id="Loyalty-App" stroke="none" stroke-width="1" fill="none" fill-rule="evenodd">
        <g id="hmapp_login-copy-2" transform="translate(-41.000000, -413.000000)" fill-rule="nonzero" fill="#F8CD1C">
            <g id="stars" transform="translate(42.000000, 414.000000)">
                <g id="line_star">
                    <path d="M29.1446155,24.7133509 C29.421185,26.4732817 29.5594702,27.3533095 29.7530695,28.5855163 C30.7023286,34.6272946 30.6411057,34.2373628 30.6433071,34.2611453 C30.7999768,35.5883471 29.8866861,36.8124155 28.5763046,36.9806858 C28.0845736,37.0439 27.5868614,36.948477 27.1600195,36.7119623 L17.9998855,31.7500324 L8.84798947,36.7078163 C8.38039158,36.966356 7.84164496,37.0573249 7.31613732,36.9648708 C6.01708883,36.7347978 5.15912612,35.473356 5.37067693,34.1597511 L7.05508007,23.4452897 L-0.311380746,15.816285 C-0.666044012,15.4478892 -0.89713053,14.9747239 -0.972116548,14.4666351 C-1.16930478,13.1461272 -0.295955723,11.8947223 1.01040758,11.6814578 L11.2259767,10.0479778 L15.8656938,0.362587015 C16.0914752,-0.106460025 16.457694,-0.489723647 16.9141543,-0.730513813 C18.1023102,-1.35575509 19.5492873,-0.854883212 20.1355553,0.364285878 L24.7744568,10.0479781 L34.9928532,11.6819141 C35.5019859,11.7648211 35.9689866,12.0146533 36.3270006,12.3927278 C37.2303969,13.3480766 37.2239748,14.87123 36.3107843,15.817353 L28.9453324,23.4453114 C28.9799864,23.6657981 29.0352926,24.0177174 29.1446155,24.7133509 Z M28.3214322,34.9969922 C28.5245454,34.9709098 28.6874337,34.7525933 28.6551252,34.4774783 C28.6574822,34.5011449 27.9331343,29.8877383 27.7777586,28.8988138 C27.5837118,27.6637588 27.4454294,26.7837488 27.1688639,25.0238432 C26.9476115,23.6159907 26.9476115,23.6159907 26.8922991,23.2640618 L26.8150077,22.7722901 L27.1607956,22.4141783 L34.8718894,14.4282593 C35.0419405,14.2520756 35.0432309,13.9460232 34.8743062,13.7673836 C34.8159457,13.7057531 34.745263,13.6679398 34.6742353,13.6563695 L23.423598,11.8573811 L23.1971677,11.3847087 L18.3324808,1.22968773 C18.2323562,1.0214748 18.019548,0.947811112 17.8464186,1.03891614 C17.772245,1.07804396 17.7091761,1.14404823 17.6685973,1.22834431 L12.5768353,11.8573811 L12.0593012,11.9401354 L1.32942445,13.6558482 C1.12490755,13.6892366 0.967625596,13.9146028 1.00620089,14.1729393 C1.02083071,14.2720658 1.06475053,14.3619946 1.12840226,14.4281125 L9.18544218,22.7723073 L9.10812832,23.2640995 L7.34582397,34.4740442 C7.30451316,34.7305684 7.46003699,34.9592313 7.66380271,34.9953207 C7.73661625,35.0081309 7.81166197,34.9954592 7.88779279,34.9534081 L17.9998532,29.4754377 L18.4761676,29.7334513 L28.1209088,34.9579377 C28.1835905,34.9926624 28.252437,35.0058619 28.3214322,34.9969922 Z" id="Fill-1"></path>
                </g>
            </g>
        </g>
    </g>
</svg>