<?xml version="1.0" encoding="UTF-8"?>
<svg width="15px" height="20px" viewBox="0 0 15 20" version="1.1" xmlns="http://www.w3.org/2000/svg" xmlns:xlink="http://www.w3.org/1999/xlink">
    <!-- Generator: Sketch 45.2 (43514) - http://www.bohemiancoding.com/sketch -->
    <title>list_arrow</title>
    <desc>Created with Sketch.</desc>
    <defs></defs>
    <g id="Loyalty-App" stroke="none" stroke-width="1" fill="none" fill-rule="evenodd">
        <g id="hm_cart_adresses" transform="translate(-342.000000, -121.000000)" fill-rule="nonzero" fill="#CFD8DC">
            <g id="list_arrow" transform="translate(342.000000, 121.000000)">
                <path d="M0.538387569,1.88708171 L10.4399826,7.03959395 C11.9097478,7.80441846 12.481215,9.61591127 11.7163905,11.0856764 C11.4320496,11.6320949 10.9864012,12.0777433 10.4399826,12.3620842 L0.538387569,17.5145965 C0.0484658678,17.769538 -0.142023218,18.3733689 0.112918288,18.8632906 C0.367859794,19.3532123 0.97169073,19.5437014 1.46161243,19.2887599 L11.3632075,14.1362476 C12.2739051,13.6623462 13.0166524,12.9195989 13.4905539,12.0089012 C14.7652614,9.55929273 13.812816,6.54013805 11.3632075,5.26543052 L1.46161243,0.112918288 C0.97169073,-0.142023218 0.367859794,0.0484658678 0.112918288,0.538387569 C-0.142023218,1.02830927 0.0484658678,1.63214021 0.538387569,1.88708171 Z" id="Path-6"></path>
            </g>
        </g>
    </g>
</svg>