<svg xmlns="http://www.w3.org/2000/svg" width="30" height="30" viewBox="0 0 30 30">
    <g fill="none" fill-rule="evenodd">
        <circle cx="15" cy="15.027" r="15" fill="#44474A" fill-opacity=".287"/>
        <path fill="#FFF" fill-rule="nonzero" d="M18.337 21.215c1.75-1.867 2.751-3.931 2.751-6.17 0-3.399-2.646-6.045-6.044-6.045C11.646 9 9 11.646 9 15.044c0 2.245 1.001 4.31 2.75 6.176a16.384 16.384 0 0 0 3.293 2.683 16.451 16.451 0 0 0 3.294-2.688zm4.751-6.17c0 2.81-1.223 5.33-3.292 7.538a18.387 18.387 0 0 1-4.258 3.352l-.494.281-.494-.28c-1.379-.784-2.901-1.901-4.258-3.348C8.222 20.382 7 17.859 7 15.044 7 10.542 10.542 7 15.044 7c4.503 0 8.044 3.542 8.044 8.044z"/>
        <path fill="#FFF" fill-rule="nonzero" d="M15 19a4 4 0 1 1 0-8 4 4 0 0 1 0 8zm0-2a2 2 0 1 0 0-4 2 2 0 0 0 0 4z"/>
    </g>
</svg>
