<?xml version="1.0" encoding="UTF-8"?>
<svg width="19px" height="25px" viewBox="0 0 19 25" version="1.1" xmlns="http://www.w3.org/2000/svg" xmlns:xlink="http://www.w3.org/1999/xlink">
    <!-- Generator: Sketch 45.2 (43514) - http://www.bohemiancoding.com/sketch -->
    <title>map</title>
    <desc>Created with Sketch.</desc>
    <defs></defs>
    <g id="Loyalty-App" stroke="none" stroke-width="1" fill="none" fill-rule="evenodd">
        <g id="Artboard-3" transform="translate(-28.000000, -208.000000)" fill-rule="nonzero" fill="#FFFFFF">
            <g id="map" transform="translate(29.000000, 209.000000)">
                <path d="M9.20636469,22.7078481 L8.5,23.4127325 L7.79363531,22.7078481 C1.95067762,16.8771352 -1,12.2630854 -1,8.70833333 C-1,3.35191572 3.2478029,-1 8.5,-1 C13.7521971,-1 18,3.35191572 18,8.70833333 C18,12.2630854 15.0493224,16.8771352 9.20636469,22.7078481 Z M16,8.70833333 C16,4.44579155 12.6366436,1 8.5,1 C4.36335635,1 1,4.44579155 1,8.70833333 C1,11.4408835 3.48298459,15.4434303 8.5,20.5784182 C13.5170154,15.4434303 16,11.4408835 16,8.70833333 Z" id="Oval"></path>
                <path d="M8.5,12.9166667 C6.21269998,12.9166667 4.36842105,11.0271848 4.36842105,8.70833333 C4.36842105,6.38948184 6.21269998,4.5 8.5,4.5 C10.7873,4.5 12.6315789,6.38948184 12.6315789,8.70833333 C12.6315789,11.0271848 10.7873,12.9166667 8.5,12.9166667 Z M8.5,10.9166667 C9.67174657,10.9166667 10.6315789,9.93330899 10.6315789,8.70833333 C10.6315789,7.48335768 9.67174657,6.5 8.5,6.5 C7.32825343,6.5 6.36842105,7.48335768 6.36842105,8.70833333 C6.36842105,9.93330899 7.32825343,10.9166667 8.5,10.9166667 Z" id="Oval-2"></path>
            </g>
        </g>
    </g>
</svg>