<?xml version="1.0" encoding="UTF-8"?>
<svg width="30px" height="30px" viewBox="0 0 30 30" version="1.1" xmlns="http://www.w3.org/2000/svg" xmlns:xlink="http://www.w3.org/1999/xlink">
    <!-- Generator: Sketch 45.2 (43514) - http://www.bohemiancoding.com/sketch -->
    <title>map</title>
    <desc>Created with Sketch.</desc>
    <defs></defs>
    <g id="Loyalty-App" stroke="none" stroke-width="1" fill="none" fill-rule="evenodd">
        <g id="hmapp_login-copy-6" transform="translate(-330.000000, -24.000000)">
            <g id="map" transform="translate(330.000000, 24.000000)">
                <circle id="Oval-2" fill-opacity="0.287307518" fill="#44474A" cx="15" cy="15.0273438" r="15"></circle>
                <path d="M18.3366893,21.2149786 C20.0866714,19.3481012 21.0883789,17.2837558 21.0883789,15.0441895 C21.0883789,11.6462153 18.4421636,9 15.0441895,9 C11.6462153,9 9,11.6462153 9,15.0441895 C9,17.289074 10.001331,19.3544022 11.750668,21.2196111 C12.7914655,22.3293484 13.9579162,23.2317874 15.0430359,23.9030267 C16.12733,23.2308718 17.2953642,22.325862 18.3366893,21.2149786 Z M23.0883789,15.0441895 C23.0883789,17.8543748 21.8651437,20.3752506 19.7958477,22.5827712 C18.438768,24.030501 16.9142521,25.1516075 15.5383402,25.9349549 L15.0440894,26.2163466 L14.5495881,25.9353954 C13.1714533,25.1524074 11.6487264,24.0345193 10.2918683,22.5877862 C8.22290056,20.3817751 7,17.8594414 7,15.0441895 C7,10.5416458 10.5416458,7 15.0441895,7 C19.5467331,7 23.0883789,10.5416458 23.0883789,15.0441895 Z" id="Page-1" fill="#FFFFFF" fill-rule="nonzero"></path>
                <path d="M15,19 C12.790861,19 11,17.209139 11,15 C11,12.790861 12.790861,11 15,11 C17.209139,11 19,12.790861 19,15 C19,17.209139 17.209139,19 15,19 Z M15,17 C16.1045695,17 17,16.1045695 17,15 C17,13.8954305 16.1045695,13 15,13 C13.8954305,13 13,13.8954305 13,15 C13,16.1045695 13.8954305,17 15,17 Z" id="Oval" fill="#FFFFFF" fill-rule="nonzero"></path>
            </g>
        </g>
    </g>
</svg>