<?xml version="1.0" encoding="UTF-8"?>
<svg width="19px" height="25px" viewBox="0 0 19 25" version="1.1" xmlns="http://www.w3.org/2000/svg" xmlns:xlink="http://www.w3.org/1999/xlink">
    <!-- Generator: Sketch 45.2 (43514) - http://www.bohemiancoding.com/sketch -->
    <title>menue</title>
    <desc>Created with Sketch.</desc>
    <defs></defs>
    <g id="Loyalty-App" stroke="none" stroke-width="1" fill="none" fill-rule="evenodd">
        <g id="Artboard-3" transform="translate(-28.000000, -61.000000)" fill-rule="nonzero" fill="#FFFFFF">
            <g id="menue" transform="translate(29.000000, 62.000000)">
                <path d="M17.6632455,3.89995455 L17.6632455,20.2346364 C17.6632455,22.0379666 16.201712,23.4995 14.3983818,23.4995 L2.65060909,23.4995 C0.847879372,23.4995 -0.613481818,22.0377943 -0.613481818,20.2346364 L-0.613481818,3.89995455 C-0.613481818,2.09739707 0.848051614,0.635863636 2.65060909,0.635863636 L14.3983818,0.635863636 C16.2015398,0.635863636 17.6632455,2.09722483 17.6632455,3.89995455 Z M15.6632455,3.89995455 C15.6632455,3.20189987 15.0970758,2.63586364 14.3983818,2.63586364 L2.65060909,2.63586364 C1.95262111,2.63586364 1.38651818,3.20196657 1.38651818,3.89995455 L1.38651818,20.2346364 C1.38651818,20.9333303 1.95255442,21.4995 2.65060909,21.4995 L14.3983818,21.4995 C15.0971425,21.4995 15.6632455,20.9333971 15.6632455,20.2346364 L15.6632455,3.89995455 Z" id="Stroke-1"></path>
                <path d="M12.021908,15.4545455 L5.22071364,15.4545455 C4.66842889,15.4545455 4.22071364,15.9022607 4.22071364,16.4545455 C4.22071364,17.0068302 4.66842889,17.4545455 5.22071364,17.4545455 L12.021908,17.4545455 C12.5741927,17.4545455 13.021908,17.0068302 13.021908,16.4545455 C13.021908,15.9022607 12.5741927,15.4545455 12.021908,15.4545455 Z" id="Stroke-7"></path>
                <path d="M12.021908,10.4545455 L5.22071364,10.4545455 C4.66842889,10.4545455 4.22071364,10.9022607 4.22071364,11.4545455 C4.22071364,12.0068302 4.66842889,12.4545455 5.22071364,12.4545455 L12.021908,12.4545455 C12.5741927,12.4545455 13.021908,12.0068302 13.021908,11.4545455 C13.021908,10.9022607 12.5741927,10.4545455 12.021908,10.4545455 Z" id="Stroke-7"></path>
                <path d="M3.63636364,0.386363636 L3.63636364,3.25163636 C3.63636364,3.80392111 4.08407889,4.25163636 4.63636364,4.25163636 C5.18864839,4.25163636 5.63636364,3.80392111 5.63636364,3.25163636 L5.63636364,0.386363636 C5.63636364,-0.165921113 5.18864839,-0.613636364 4.63636364,-0.613636364 C4.08407889,-0.613636364 3.63636364,-0.165921113 3.63636364,0.386363636 Z" id="Stroke-9"></path>
                <path d="M6.72727273,0.386363636 L6.72727273,3.25163636 C6.72727273,3.80392111 7.17498798,4.25163636 7.72727273,4.25163636 C8.27955748,4.25163636 8.72727273,3.80392111 8.72727273,3.25163636 L8.72727273,0.386363636 C8.72727273,-0.165921113 8.27955748,-0.613636364 7.72727273,-0.613636364 C7.17498798,-0.613636364 6.72727273,-0.165921113 6.72727273,0.386363636 Z" id="Stroke-11"></path>
                <path d="M9.81818182,0.386363636 L9.81818182,3.25163636 C9.81818182,3.80392111 10.2658971,4.25163636 10.8181818,4.25163636 C11.3704666,4.25163636 11.8181818,3.80392111 11.8181818,3.25163636 L11.8181818,0.386363636 C11.8181818,-0.165921113 11.3704666,-0.613636364 10.8181818,-0.613636364 C10.2658971,-0.613636364 9.81818182,-0.165921113 9.81818182,0.386363636 Z" id="Stroke-13"></path>
            </g>
        </g>
    </g>
</svg>