<svg width="20px" height="25px" viewBox="0 0 20 25" version="1.1" xmlns="http://www.w3.org/2000/svg" xmlns:xlink="http://www.w3.org/1999/xlink">
    <!-- Generator: Sketch 45.2 (43514) - http://www.bohemiancoding.com/sketch -->
    <desc>Created with Sketch.</desc>
    <defs></defs>
    <g id="Loyalty-App" stroke="none" stroke-width="1" fill="none" fill-rule="evenodd">
        <g id="user_icon" transform="translate(0.000000, 0.523438)" fill-rule="nonzero" fill="#73808D">
            <path d="M1.81818182,22.0153904 L18.1818182,22.0153904 L18.1818182,20.145912 C16.7557363,18.459987 13.940301,17.5307185 9.62320964,17.5307185 C5.33842463,17.5307185 2.80237492,18.4384039 1.81818182,19.9830472 L1.81818182,22.0153904 Z M0,19.4463104 C1.19791667,16.846176 4.40565321,15.5461088 9.62320964,15.5461088 C14.8407661,15.5461088 18.2996962,16.846176 20,19.4463104 L20,24 L0,24 L0,19.4463104 Z M10.0693407,12.652832 C7.01186118,12.652832 5.2580712,10.5780571 4.71850234,6.43899907 C4.19924624,2.45576109 6.62512197,1.77635684e-15 10.0693407,1.77635684e-15 C13.3009354,1.77635684e-15 15.838914,2.81119583 15.4170076,6.42733925 C14.9753729,10.2125724 13.0223209,12.652832 10.0693407,12.652832 Z M10.0693407,10.8703358 C11.9324061,10.8703358 13.2621033,9.20951606 13.6105627,6.22393233 C13.9097601,3.66042261 12.2108697,1.7793045 10.0693407,1.7793045 C7.68281645,1.7793045 6.14669656,3.33380272 6.52206703,6.2122766 C6.95782968,9.55385918 8.07102711,10.8703358 10.0693407,10.8703358 Z" id="Combined-Shape"></path>
        </g>
    </g>
</svg>