<?xml version="1.0" encoding="UTF-8"?>
<svg width="18px" height="18px" viewBox="0 0 18 18" version="1.1" xmlns="http://www.w3.org/2000/svg" xmlns:xlink="http://www.w3.org/1999/xlink">
    <!-- Generator: Sketch 46.2 (44496) - http://www.bohemiancoding.com/sketch -->
    <title>phone</title>
    <desc>Created with Sketch.</desc>
    <defs></defs>
    <g id="Loyalty-App" stroke="none" stroke-width="1" fill="none" fill-rule="evenodd">
        <g id="hmapp_login-copy-6" transform="translate(-177.000000, -234.000000)" fill="#73808D">
            <g id="phone" transform="translate(177.000000, 234.000000)">
                <path d="M9,17 C13.418278,17 17,13.418278 17,9 C17,4.581722 13.418278,1 9,1 C4.581722,1 1,4.581722 1,9 C1,13.418278 4.581722,17 9,17 Z M9,18 C4.02943725,18 0,13.9705627 0,9 C0,4.02943725 4.02943725,0 9,0 C13.9705627,0 18,4.02943725 18,9 C18,13.9705627 13.9705627,18 9,18 Z" id="Button" fill-rule="nonzero"></path>
                <path d="M7.49636293,10.7524764 C8.88077989,12.1368933 11.5820063,13.6503859 12.3979853,12.8344069 L12.6678986,12.5644936 C12.7880734,12.4443188 12.9389195,12.0893174 13.0388818,11.8289473 C13.104433,11.6581804 13.0393322,11.4700252 12.8853223,11.3816699 L11.2341078,10.4346105 C11.1283015,10.3739177 10.9970772,10.371315 10.8843635,10.4277291 L10.0575417,10.8416254 C9.90586128,10.9176244 9.72928351,10.9099824 9.59167247,10.8203645 C9.30604694,10.6341807 8.74953717,10.2299051 8.38423568,9.86460361 L8.19964675,9.68001468 C7.83434526,9.31471319 7.43006966,8.75820341 7.24388588,8.47257789 C7.15436025,8.33505914 7.14671827,8.15848137 7.22262493,8.00670866 L7.6365213,7.17988685 C7.69293537,7.06717316 7.69033267,6.93594889 7.62963983,6.83014252 L6.68258049,5.1789281 C6.59422515,5.02491817 6.40606996,4.95981735 6.23530305,5.02536857 C5.97493299,5.12533086 5.61993156,5.27617693 5.49975678,5.39635171 L5.22984347,5.66626502 C4.41386442,6.48224407 5.92735704,9.18347046 7.311774,10.5678874 L7.49636293,10.7524764 L7.49636293,10.7524764 Z" id="Phone"></path>
            </g>
        </g>
    </g>
</svg>