<?xml version="1.0" encoding="UTF-8"?>
<svg width="37px" height="38px" viewBox="0 0 37 38" version="1.1" xmlns="http://www.w3.org/2000/svg" xmlns:xlink="http://www.w3.org/1999/xlink">
    <!-- Generator: Sketch 45.2 (43514) - http://www.bohemiancoding.com/sketch -->
    <title>pizza_40</title>
    <desc>Created with Sketch.</desc>
    <defs></defs>
    <g id="Loyalty-App" stroke="none" stroke-width="1" fill="none" fill-rule="evenodd">
        <g id="hm_product_2" transform="translate(-264.000000, -336.000000)" fill="#FFFFFF">
            <g id="Page-1" transform="translate(264.000000, 336.000000)">
                <g id="pizza_40" transform="translate(0.000000, 0.250000)">
                    <path d="M1.02845,16.6 C1.37845,13.2 2.52845,11.5 3.22845,10.8 C3.27845,10.75 3.37845,10.7 3.47845,10.75 L4.22845,11.2 C3.52845,11.95 2.47845,13.6 2.17845,16.7 C1.87845,19.8 2.57845,21.65 3.12845,22.55 L2.27845,22.85 C2.17845,22.9 2.07845,22.85 2.02845,22.75 C1.62845,22.05 0.67845,20.15 1.02845,16.6 M16.77845,18.3 C16.77845,18.35 16.72845,18.4 16.67845,18.4 L4.17845,22.2 C4.12845,22.2 4.07845,22.2 4.02845,22.15 C3.67845,21.55 2.82845,19.9 3.17845,16.8 C3.47845,13.75 4.62845,12.25 5.07845,11.8 C5.07845,11.8 5.12845,11.75 5.17845,11.75 L5.22845,11.75 L16.72845,18.2 C16.77845,18.25 16.77845,18.25 16.77845,18.3 M18.22845,20.05 C18.27845,20.05 18.32845,20.1 18.32845,20.15 L22.52845,32.55 C22.52845,32.6 22.52845,32.65 22.47845,32.7 C21.92845,33.1 20.22845,33.95 17.17845,33.75 C14.07845,33.55 12.57845,32.45 12.07845,32 C12.02845,31.95 12.02845,31.9 12.07845,31.85 L18.12845,20.15 C18.12845,20.1 18.17845,20.05 18.22845,20.05 M18.37845,16.9 L18.37845,16.9 C18.32845,16.9 18.27845,16.9 18.27845,16.85 L13.22845,4.75 C13.22845,4.7 13.22845,4.65 13.27845,4.6 C13.82845,4.2 15.42845,3.2 18.52845,3.2 C21.62845,3.2 23.17845,4.15 23.72845,4.6 C23.77845,4.65 23.77845,4.7 23.77845,4.75 L18.47845,16.85 C18.47845,16.9 18.42845,16.9 18.37845,16.9 M12.52845,2.7 C13.32845,2.1 15.12845,1.1 18.52845,1.1 C21.92845,1.1 23.72845,2.1 24.47845,2.7 C24.52845,2.75 24.57845,2.85 24.52845,2.95 L24.17845,3.75 C23.32845,3.15 21.62845,2.25 18.52845,2.25 C15.42845,2.25 13.62845,3.15 12.82845,3.75 L12.47845,2.95 C12.42845,2.85 12.42845,2.75 12.52845,2.7 M25.62845,3.3 C26.57845,3.45 28.57845,4.05 30.97845,6.5 C33.37845,8.95 33.87845,10.95 33.97845,11.9 C33.97845,12 33.92845,12.1 33.82845,12.1 L32.97845,12.4 C32.82845,11.4 32.27845,9.5 30.12845,7.3 C27.97845,5.05 26.07845,4.4 25.07845,4.25 L25.42845,3.45 C25.47845,3.35 25.57845,3.3 25.62845,3.3 M35.77845,19.25 C35.67845,22.65 34.57845,24.4 33.97845,25.15 C33.92845,25.2 33.82845,25.25 33.72845,25.2 L32.92845,24.8 C33.57845,24 34.52845,22.3 34.62845,19.2 C34.72845,16.1 33.87845,14.3 33.32845,13.45 L34.17845,13.1 C34.27845,13.05 34.37845,13.1 34.42845,13.15 C34.92845,14 35.87845,15.8 35.77845,19.25 M29.92845,31.55 C27.37845,33.85 25.37845,34.3 24.42845,34.35 C24.32845,34.35 24.27845,34.3 24.22845,34.2 L23.92845,33.35 C24.92845,33.25 26.82845,32.75 29.12845,30.65 C31.42845,28.55 32.12845,26.7 32.32845,25.7 L33.12845,26.05 C33.22845,26.1 33.27845,26.2 33.22845,26.25 C33.12845,27.25 32.47845,29.25 29.92845,31.55 M19.37845,19.7 C19.37845,19.7 19.42845,19.65 19.47845,19.65 L19.52845,19.65 L31.37845,25.25 C31.42845,25.25 31.47845,25.3 31.42845,25.35 C31.32845,26.05 30.77845,27.8 28.47845,29.9 C26.17845,31.95 24.37845,32.3 23.67845,32.35 C23.62845,32.35 23.57845,32.3 23.57845,32.25 L19.37845,19.75 C19.32845,19.75 19.37845,19.7 19.37845,19.7 M20.02845,18.45 L32.22845,13.85 L32.27845,13.85 C32.32845,13.85 32.32845,13.85 32.37845,13.9 C32.77845,14.45 33.72845,16.1 33.62845,19.2 C33.52845,22.3 32.47845,23.8 32.07845,24.35 C32.02845,24.4 31.97845,24.4 31.92845,24.4 L19.97845,18.7 C19.92845,18.7 19.92845,18.65 19.92845,18.6 C19.92845,18.55 19.97845,18.5 20.02845,18.45 M31.97845,12.8 L19.62845,17.45 C19.57845,17.45 19.52845,17.45 19.47845,17.4 C19.42845,17.35 19.42845,17.3 19.47845,17.25 L24.67845,5.25 C24.67845,5.2 24.72845,5.2 24.77845,5.2 C25.47845,5.3 27.27845,5.75 29.42845,8 C31.57845,10.2 31.97845,12.05 32.02845,12.7 C32.07845,12.75 32.02845,12.8 31.97845,12.8 M23.12845,34.65 C22.47845,35.1 20.57845,36.1 17.02845,35.85 C13.62845,35.6 11.87845,34.5 11.17845,33.85 C11.12845,33.8 11.07845,33.7 11.12845,33.6 L11.52845,32.8 C12.32845,33.45 13.97845,34.45 17.07845,34.7 C17.42845,34.7 17.77845,34.75 18.07845,34.75 C20.57845,34.75 22.12845,34.05 22.87845,33.6 L23.17845,34.45 C23.22845,34.5 23.22845,34.6 23.12845,34.65 M10.07845,33.15 C9.32845,33 7.27845,32.3 4.97845,29.6 C2.72845,27 2.32845,25 2.32845,24 C2.32845,23.9 2.37845,23.85 2.47845,23.8 L3.32845,23.55 C3.37845,24.55 3.82845,26.5 5.82845,28.85 C7.82845,31.25 9.67845,32 10.67845,32.25 L10.27845,33.05 C10.22845,33.15 10.12845,33.2 10.07845,33.15 M4.37845,23.25 L16.97845,19.45 C17.02845,19.45 17.07845,19.45 17.07845,19.5 C17.12845,19.55 17.12845,19.6 17.07845,19.65 L11.07845,31.3 C11.07845,31.35 10.97845,31.35 10.92845,31.35 C10.27845,31.2 8.47845,30.6 6.47845,28.25 C4.47845,25.9 4.22845,24.05 4.17845,23.4 C4.27845,23.3 4.32845,23.25 4.37845,23.25 M1.42845,23.55 C1.37845,23.7 1.32845,23.9 1.32845,24.1 C1.37845,25.2 1.77845,27.45 4.17845,30.3 C6.57845,33.15 8.77845,33.95 9.87845,34.2 C9.97845,34.2 10.02845,34.25 10.12845,34.25 L10.22845,34.25 C10.27845,34.4 10.37845,34.55 10.52845,34.7 C11.32845,35.45 13.27845,36.7 16.97845,36.95 C17.37845,37 17.77845,37 18.12845,37 C21.12845,37 22.92845,36.15 23.72845,35.6 C23.82845,35.55 23.92845,35.45 23.97845,35.35 C24.12845,35.4 24.27845,35.45 24.42845,35.45 L24.52845,35.45 C25.62845,35.4 27.87845,34.9 30.62845,32.4 C33.37845,29.9 34.12845,27.7 34.32845,26.6 L34.32845,26.25 C34.47845,26.2 34.62845,26.05 34.77845,25.95 C35.47845,25.1 36.67845,23.15 36.82845,19.45 C36.92845,15.7 35.87845,13.65 35.22845,12.75 C35.17845,12.65 35.07845,12.55 34.97845,12.5 C35.02845,12.35 35.07845,12.15 35.02845,11.95 C34.92845,10.85 34.32845,8.6 31.77845,5.95 C29.17845,3.25 26.97845,2.6 25.87845,2.45 L25.52845,2.45 C25.42845,2.3 25.32845,2.15 25.17845,2.05 C24.32845,1.35 22.32845,0.25 18.57845,0.25 C14.82845,0.25 12.82845,1.4 11.92845,2.05 C11.47845,2.4 11.32845,2.95 11.57845,3.45 L12.37845,5.3 L17.37845,17.4 C17.57845,17.8 17.92845,18.1 18.37845,18.1 C18.47845,18.1 18.52845,18.1 18.62845,18.05 C18.67845,18.15 18.72845,18.2 18.77845,18.25 C18.82845,18.3 18.92845,18.35 18.97845,18.4 C18.97845,18.5 18.92845,18.55 18.92845,18.65 C18.92845,18.75 18.92845,18.8 18.97845,18.9 C18.87845,18.95 18.82845,19 18.72845,19.05 C18.67845,19.1 18.62845,19.2 18.57845,19.25 C18.47845,19.2 18.42845,19.2 18.32845,19.2 L18.07845,19.2 C18.02845,19.1 17.97845,19.05 17.92845,18.95 C17.87845,18.9 17.82845,18.85 17.72845,18.8 C17.77845,18.7 17.77845,18.65 17.77845,18.55 C17.82845,18.1 17.62845,17.7 17.22845,17.45 L5.72845,10.9 L3.97845,9.9 C3.47845,9.65 2.87845,9.7 2.52845,10.1 C1.77845,10.9 0.42845,12.75 0.07845,16.45 C-0.27155,20.15 0.62845,22.3 1.22845,23.25 C1.27845,23.35 1.32845,23.45 1.42845,23.55" id="Fill-37"></path>
                </g>
            </g>
        </g>
    </g>
</svg>