<?xml version="1.0" encoding="UTF-8"?>
<svg width="31px" height="32px" viewBox="0 0 31 32" version="1.1" xmlns="http://www.w3.org/2000/svg" xmlns:xlink="http://www.w3.org/1999/xlink">
    <!-- Generator: Sketch 45.2 (43514) - http://www.bohemiancoding.com/sketch -->
    <title>pizza_30</title>
    <desc>Created with Sketch.</desc>
    <defs></defs>
    <g id="Loyalty-App" stroke="none" stroke-width="1" fill="none" fill-rule="evenodd">
        <g id="hm_product_2" transform="translate(-318.000000, -341.000000)" fill="#FFFFFF">
            <g id="Page-1" transform="translate(318.000000, 341.000000)">
                <g id="pizza_30" transform="translate(0.000000, 0.209459)">
                    <path d="M0.861674324,13.9081081 C1.15491757,11.0594595 2.11843108,9.63513514 2.70491757,9.04864865 C2.74680946,9.00675676 2.83059324,8.96486486 2.91437703,9.00675676 L3.54275541,9.38378378 C2.95626892,10.0121622 2.07653919,11.3945946 1.82518784,13.9918919 C1.57383649,16.5891892 2.16032297,18.1391892 2.62113378,18.8932432 L1.90897162,19.1445946 C1.82518784,19.1864865 1.74140405,19.1445946 1.69951216,19.0608108 C1.36437703,18.4743243 0.568431081,16.8824324 0.861674324,13.9081081 M14.0576203,15.3324324 C14.0576203,15.3743243 14.0157284,15.4162162 13.9738365,15.4162162 L3.50086351,18.6 C3.45897162,18.6 3.41707973,18.6 3.37518784,18.5581081 C3.08194459,18.0554054 2.36978243,16.672973 2.66302568,14.0756757 C2.91437703,11.5202703 3.87789054,10.2635135 4.25491757,9.88648649 C4.25491757,9.88648649 4.29680946,9.84459459 4.33870135,9.84459459 L4.38059324,9.84459459 L14.0157284,15.2486486 C14.0576203,15.2905405 14.0576203,15.2905405 14.0576203,15.3324324 M15.2724851,16.7986486 C15.314377,16.7986486 15.3562689,16.8405405 15.3562689,16.8824324 L18.8751878,27.2716216 C18.8751878,27.3135135 18.8751878,27.3554054 18.8332959,27.3972973 C18.3724851,27.7324324 16.9481608,28.4445946 14.3927554,28.277027 C11.7954581,28.1094595 10.5387014,27.1878378 10.1197824,26.8108108 C10.0778905,26.7689189 10.0778905,26.727027 10.1197824,26.6851351 L15.1887014,16.8824324 C15.1887014,16.8405405 15.2305932,16.7986486 15.2724851,16.7986486 M15.3981608,14.1594595 L15.3981608,14.1594595 C15.3562689,14.1594595 15.314377,14.1594595 15.314377,14.1175676 L11.0832959,3.97972973 C11.0832959,3.93783784 11.0832959,3.89594595 11.1251878,3.85405405 C11.5859986,3.51891892 12.9265392,2.68108108 15.5238365,2.68108108 C18.1211338,2.68108108 19.4197824,3.47702703 19.8805932,3.85405405 C19.9224851,3.89594595 19.9224851,3.93783784 19.9224851,3.97972973 L15.4819446,14.1175676 C15.4819446,14.1594595 15.4400527,14.1594595 15.3981608,14.1594595 M10.4968095,2.26216216 C11.1670797,1.75945946 12.6751878,0.921621622 15.5238365,0.921621622 C18.3724851,0.921621622 19.8805932,1.75945946 20.5089716,2.26216216 C20.5508635,2.30405405 20.5927554,2.38783784 20.5508635,2.47162162 L20.2576203,3.14189189 C19.5454581,2.63918919 18.1211338,1.88513514 15.5238365,1.88513514 C12.9265392,1.88513514 11.4184311,2.63918919 10.7481608,3.14189189 L10.4549176,2.47162162 C10.4130257,2.38783784 10.4130257,2.30405405 10.4968095,2.26216216 M21.4724851,2.76486486 C22.2684311,2.89054054 23.9441068,3.39324324 25.9549176,5.44594595 C27.9657284,7.49864865 28.3846473,9.17432432 28.4684311,9.97027027 C28.4684311,10.0540541 28.4265392,10.1378378 28.3427554,10.1378378 L27.6305932,10.3891892 C27.5049176,9.55135135 27.0441068,7.95945946 25.2427554,6.11621622 C23.4414041,4.23108108 21.8495122,3.68648649 21.0116743,3.56081081 L21.3049176,2.89054054 C21.3468095,2.80675676 21.4305932,2.76486486 21.4724851,2.76486486 M29.9765392,16.1283784 C29.8927554,18.977027 28.9711338,20.4432432 28.4684311,21.0716216 C28.4265392,21.1135135 28.3427554,21.1554054 28.2589716,21.1135135 L27.5887014,20.7783784 C28.1332959,20.1081081 28.9292419,18.6837838 29.0130257,16.0864865 C29.0968095,13.4891892 28.3846473,11.9810811 27.9238365,11.2689189 L28.6359986,10.9756757 C28.7197824,10.9337838 28.8035662,10.9756757 28.8454581,11.0175676 C29.264377,11.7297297 30.060323,13.2378378 29.9765392,16.1283784 M25.0751878,26.4337838 C22.9387014,28.3608108 21.2630257,28.7378378 20.4670797,28.7797297 C20.3832959,28.7797297 20.3414041,28.7378378 20.2995122,28.6540541 L20.0481608,27.9418919 C20.8859986,27.8581081 22.4778905,27.4391892 24.4049176,25.6797297 C26.3319446,23.9202703 26.9184311,22.3702703 27.0859986,21.5324324 L27.7562689,21.8256757 C27.8400527,21.8675676 27.8819446,21.9513514 27.8400527,21.9932432 C27.7562689,22.8310811 27.2116743,24.5067568 25.0751878,26.4337838 M16.2359986,16.5054054 C16.2359986,16.5054054 16.2778905,16.4635135 16.3197824,16.4635135 L16.3616743,16.4635135 L26.2900527,21.1554054 C26.3319446,21.1554054 26.3738365,21.1972973 26.3319446,21.2391892 C26.2481608,21.8256757 25.78735,23.2918919 23.860323,25.0513514 C21.9332959,26.7689189 20.4251878,27.0621622 19.8387014,27.1040541 C19.7968095,27.1040541 19.7549176,27.0621622 19.7549176,27.0202703 L16.2359986,16.5472973 C16.1941068,16.5472973 16.2359986,16.5054054 16.2359986,16.5054054 M16.7805932,15.4581081 L27.0022149,11.6040541 L27.0441068,11.6040541 C27.0859986,11.6040541 27.0859986,11.6040541 27.1278905,11.6459459 C27.4630257,12.1067568 28.2589716,13.4891892 28.1751878,16.0864865 C28.0914041,18.6837838 27.2116743,19.9405405 26.8765392,20.4013514 C26.8346473,20.4432432 26.7927554,20.4432432 26.7508635,20.4432432 L16.7387014,15.6675676 C16.6968095,15.6675676 16.6968095,15.6256757 16.6968095,15.5837838 C16.6968095,15.5418919 16.7387014,15.5 16.7805932,15.4581081 M26.7927554,10.7243243 L16.4454581,14.6202703 C16.4035662,14.6202703 16.3616743,14.6202703 16.3197824,14.5783784 C16.2778905,14.5364865 16.2778905,14.4945946 16.3197824,14.4527027 L20.6765392,4.39864865 C20.6765392,4.35675676 20.7184311,4.35675676 20.760323,4.35675676 C21.3468095,4.44054054 22.8549176,4.81756757 24.6562689,6.7027027 C26.4576203,8.54594595 26.7927554,10.0959459 26.8346473,10.6405405 C26.8765392,10.6824324 26.8346473,10.7243243 26.7927554,10.7243243 M19.3778905,29.0310811 C18.8332959,29.4081081 17.2414041,30.2459459 14.2670797,30.0364865 C11.4184311,29.827027 9.95221486,28.9054054 9.36572838,28.3608108 C9.32383649,28.3189189 9.28194459,28.2351351 9.32383649,28.1513514 L9.65897162,27.4810811 C10.3292419,28.0256757 11.7116743,28.8635135 14.3089716,29.072973 C14.6022149,29.072973 14.8954581,29.1148649 15.1468095,29.1148649 C17.2414041,29.1148649 18.5400527,28.5283784 19.1684311,28.1513514 L19.4197824,28.8635135 C19.4616743,28.9054054 19.4616743,28.9891892 19.3778905,29.0310811 M8.44410676,27.7743243 C7.81572838,27.6486486 6.09816081,27.0621622 4.17113378,24.8 C2.28599865,22.6216216 1.95086351,20.9459459 1.95086351,20.1081081 C1.95086351,20.0243243 1.99275541,19.9824324 2.07653919,19.9405405 L2.78870135,19.7310811 C2.83059324,20.5689189 3.20762027,22.2027027 4.88329595,24.1716216 C6.55897162,26.1824324 8.10897162,26.8108108 8.94680946,27.0202703 L8.61167432,27.6905405 C8.56978243,27.7743243 8.48599865,27.8162162 8.44410676,27.7743243 M3.66843108,19.4797297 L14.2251878,16.2959459 C14.2670797,16.2959459 14.3089716,16.2959459 14.3089716,16.3378378 C14.3508635,16.3797297 14.3508635,16.4216216 14.3089716,16.4635135 L9.28194459,26.2243243 C9.28194459,26.2662162 9.19816081,26.2662162 9.15626892,26.2662162 C8.61167432,26.1405405 7.10356622,25.6378378 5.42789054,23.6689189 C3.75221486,21.7 3.54275541,20.15 3.50086351,19.6054054 C3.5846473,19.5216216 3.62653919,19.4797297 3.66843108,19.4797297 M1.19680946,19.7310811 C1.15491757,19.8567568 1.11302568,20.0243243 1.11302568,20.1918919 C1.15491757,21.1135135 1.4900527,22.9986486 3.50086351,25.3864865 C5.51167432,27.7743243 7.35491757,28.4445946 8.27653919,28.6540541 C8.36032297,28.6540541 8.40221486,28.6959459 8.48599865,28.6959459 L8.56978243,28.6959459 C8.61167432,28.8216216 8.69545811,28.9472973 8.82113378,29.072973 C9.49140405,29.7013514 11.1251878,30.7486486 14.2251878,30.9581081 C14.560323,31 14.8954581,31 15.1887014,31 C17.7022149,31 19.210323,30.2878378 19.8805932,29.827027 C19.964377,29.7851351 20.0481608,29.7013514 20.0900527,29.6175676 C20.2157284,29.6594595 20.3414041,29.7013514 20.4670797,29.7013514 L20.5508635,29.7013514 C21.4724851,29.6594595 23.3576203,29.2405405 25.6616743,27.1459459 C27.9657284,25.0513514 28.5941068,23.2081081 28.7616743,22.2864865 L28.7616743,21.9932432 C28.88735,21.9513514 29.0130257,21.8256757 29.1387014,21.7418919 C29.7251878,21.0297297 30.7305932,19.3959459 30.8562689,16.2959459 C30.9400527,13.1540541 30.060323,11.4364865 29.5157284,10.6824324 C29.4738365,10.5986486 29.3900527,10.5148649 29.3062689,10.472973 C29.3481608,10.3472973 29.3900527,10.1797297 29.3481608,10.0121622 C29.264377,9.09054054 28.7616743,7.20540541 26.6251878,4.98513514 C24.4468095,2.72297297 22.6035662,2.17837838 21.6819446,2.0527027 L21.3887014,2.0527027 C21.3049176,1.92702703 21.2211338,1.80135135 21.0954581,1.71756757 C20.3832959,1.13108108 18.7076203,0.209459459 15.5657284,0.209459459 C12.4238365,0.209459459 10.7481608,1.17297297 9.99410676,1.71756757 C9.61707973,2.01081081 9.49140405,2.47162162 9.70086351,2.89054054 L10.3711338,4.44054054 L14.560323,14.5783784 C14.7278905,14.9135135 15.0211338,15.1648649 15.3981608,15.1648649 C15.4819446,15.1648649 15.5238365,15.1648649 15.6076203,15.122973 C15.6495122,15.2067568 15.6914041,15.2486486 15.7332959,15.2905405 C15.7751878,15.3324324 15.8589716,15.3743243 15.9008635,15.4162162 C15.9008635,15.5 15.8589716,15.5418919 15.8589716,15.6256757 C15.8589716,15.7094595 15.8589716,15.7513514 15.9008635,15.8351351 C15.8170797,15.877027 15.7751878,15.9189189 15.6914041,15.9608108 C15.6495122,16.0027027 15.6076203,16.0864865 15.5657284,16.1283784 C15.4819446,16.0864865 15.4400527,16.0864865 15.3562689,16.0864865 L15.1468095,16.0864865 C15.1049176,16.0027027 15.0630257,15.9608108 15.0211338,15.877027 C14.9792419,15.8351351 14.93735,15.7932432 14.8535662,15.7513514 C14.8954581,15.6675676 14.8954581,15.6256757 14.8954581,15.5418919 C14.93735,15.1648649 14.7697824,14.8297297 14.4346473,14.6202703 L4.79951216,9.13243243 L3.33329595,8.29459459 C2.91437703,8.08513514 2.41167432,8.12702703 2.11843108,8.46216216 C1.4900527,9.13243243 0.358971622,10.6824324 0.0657283784,13.7824324 C-0.227514865,16.8824324 0.526539189,18.6837838 1.02924189,19.4797297 C1.07113378,19.5635135 1.11302568,19.6472973 1.19680946,19.7310811" id="Fill-37"></path>
                </g>
            </g>
        </g>
    </g>
</svg>