<?xml version="1.0" encoding="UTF-8"?>
<svg width="28px" height="28px" viewBox="0 0 28 28" version="1.1" xmlns="http://www.w3.org/2000/svg" xmlns:xlink="http://www.w3.org/1999/xlink">
    <!-- Generator: Sketch 45.2 (43514) - http://www.bohemiancoding.com/sketch -->
    <title>plus</title>
    <desc>Created with Sketch.</desc>
    <defs></defs>
    <g id="Loyalty-App" stroke="none" stroke-width="1" fill="none" fill-rule="evenodd">
        <g id="hm_product" transform="translate(-97.000000, -561.000000)">
            <g id="Group-10" transform="translate(16.000000, 553.000000)">
                <g id="Group-9" transform="translate(0.000000, 7.000000)">
                    <g id="plus" transform="translate(81.000000, 1.000000)">
                        <circle id="Oval-2" fill="#F1F5F6" cx="14" cy="14" r="14"></circle>
                        <g id="Group-4" transform="translate(6.705078, 7.000000)" fill="#73808D">
                            <path d="M6.21550593,5.86880187 L2.1706683,5.86880187 C1.50659048,5.86880187 0.933068732,6.40647851 0.933068732,7.02905147 C0.933068732,7.65162442 1.50659048,8.18930106 2.1706683,8.18930106 L6.21550593,8.18930106 L6.21550593,12.264324 C6.21550593,12.9717933 6.84939839,13.5660675 7.60403227,13.5660675 C8.35866616,13.5660675 8.99255862,12.9717933 8.99255862,12.264324 L8.99255862,8.18930106 L13.0373962,8.18930106 C13.7014741,8.18930106 14.2749958,7.65162442 14.2749958,7.02905147 C14.2749958,6.40647851 13.7014741,5.86880187 13.0373962,5.86880187 L8.99255862,5.86880187 L8.99255862,1.79377889 C8.99255862,1.08630962 8.35866616,0.49203544 7.60403227,0.49203544 C6.84939839,0.49203544 6.21550593,1.08630962 6.21550593,1.79377889 L6.21550593,5.86880187 Z" id="+"></path>
                        </g>
                    </g>
                </g>
            </g>
        </g>
    </g>
</svg>