<?xml version="1.0" encoding="UTF-8"?>
<svg width="11px" height="16px" viewBox="0 0 15 22" version="1.1" xmlns="http://www.w3.org/2000/svg" xmlns:xlink="http://www.w3.org/1999/xlink">
    <!-- Generator: Sketch 45.2 (43514) - http://www.bohemiancoding.com/sketch -->
    <title>ruble_dark</title>
    <desc>Created with Sketch.</desc>
    <defs></defs>
    <g id="Loyalty-App" stroke="none" stroke-width="1" fill="none" fill-rule="evenodd">
        <g id="ruble_dark" fill="#fff">
            <path d="M3.42494715,15.8041648 L7.56353182,15.8041648 C8.38926976,15.8041648 9.05866263,16.4735577 9.05866263,17.2992956 C9.05866263,18.1250336 8.38926976,18.7944264 7.56353182,18.7944264 L3.42494715,18.7944264 L3.42494715,20.3148936 C3.42494715,21.2510638 2.66384778,22 1.71247357,22 C0.761099366,22 0,21.2510638 0,20.3148936 L0,1.65390071 C0,0.655319149 0.665961945,0 1.64904863,0 L7.92811839,0 C11.3530655,0 15,2.15319149 15,6.67801418 C15,11.2340426 11.3530655,13.3560284 7.92811839,13.3560284 L3.42494715,13.3560284 L3.42494715,15.8041648 Z M3.42494715,10.2978723 L7.45243129,10.2978723 C9.83086681,10.2978723 11.5750529,9.08085106 11.5750529,6.67801418 C11.5750529,4.24397163 9.83086681,3.05815603 7.45243129,3.05815603 L3.42494715,3.05815603 L3.42494715,10.2978723 Z" id="Combined-Shape"></path>
        </g>
    </g>
</svg>