<?xml version="1.0" encoding="UTF-8"?>
<svg width="24px" height="24px" viewBox="0 0 24 24" version="1.1" xmlns="http://www.w3.org/2000/svg" xmlns:xlink="http://www.w3.org/1999/xlink">
    <!-- Generator: Sketch 45.2 (43514) - http://www.bohemiancoding.com/sketch -->
    <title>sale</title>
    <desc>Created with Sketch.</desc>
    <defs></defs>
    <g id="Loyalty-App" stroke="none" stroke-width="1" fill="none" fill-rule="evenodd">
        <g id="Artboard-3" transform="translate(-27.000000, -113.000000)" fill-rule="nonzero" fill="#FFFFFF">
            <g id="sale" transform="translate(28.000000, 114.000000)">
                <path d="M22.0647402,10.641863 C22.7687824,11.337602 22.7739156,12.4751342 22.0759379,13.1780727 L13.3298181,22.0085223 C12.8170096,22.5267862 12.0170438,22.6964759 11.3283662,22.3787287 C11.0379491,22.2501834 10.2050912,21.4359569 5.48601274,16.7702293 C4.25378229,15.5518508 2.99325381,14.3027015 1.70315911,13.0223958 C1.00709586,12.3316141 -0.065342637,11.2663766 -0.0669347775,11.264715 C-0.398904672,10.9294582 -0.589356153,10.4775173 -0.591008292,10.0064056 L-0.633541397,1.21671927 C-0.638410145,0.220248893 0.163318945,-0.570783684 1.15078167,-0.586022139 L9.36468609,-0.624888025 C9.41221682,-0.625120638 9.44827911,-0.625933142 9.54363857,-0.628659168 C10.3337458,-0.65160398 10.7322527,-0.581405471 11.2107526,-0.108725327 C13.4258834,2.08566202 14.1294539,2.78262085 14.9423224,3.58776046 C15.6530335,4.29171389 20.0711725,8.66740358 22.0647402,10.641863 Z M13.5351785,5.0090086 C12.7219648,4.20352708 12.0183744,3.50654849 9.80421384,1.31312092 C9.85328051,1.36159067 9.86108421,1.36296532 9.60169434,1.37049804 C9.49703812,1.37353474 9.44297656,1.37475278 9.37431167,1.37508881 L1.3674314,1.41291865 L1.40855457,9.91141144 C1.64725433,10.148512 2.51950665,11.0148322 3.11197665,11.6028067 C4.40126673,12.8823139 5.66096359,14.1306391 6.84453406,15.3009061 L6.89216404,15.3479992 C8.41733138,16.8559239 9.69153583,18.1109714 10.6369122,19.0351994 C11.1721029,19.5584176 11.5944737,19.9683203 11.8930649,20.2539933 C11.961608,20.3195709 12.0233866,20.3783689 12.0781561,20.4301574 L20.5100425,11.9169719 C18.454334,9.88097185 14.2286195,5.69585617 13.5351785,5.0090086 Z" id="Stroke-1"></path>
                <path d="M12.732105,13.5118116 C12.5698132,13.3493169 12.1418754,13.3908312 11.7923902,13.7399565 C11.4425379,14.0901688 11.4010236,14.5181065 11.5639601,14.6808399 C11.7272487,14.8441285 12.1544882,14.8027649 12.5044799,14.4527732 C12.8544716,14.1027815 12.8958351,13.675542 12.732105,13.5118116 Z M10.1501884,16.095495 C9.13821699,15.084787 9.30129645,13.4037307 10.3781769,12.3257431 C11.4554373,11.2495898 13.1364937,11.0865103 14.1467601,12.0980399 C15.1583547,13.1096345 14.9956675,14.7900128 13.9186934,15.8669868 C12.8417194,16.9439608 11.1613411,17.106648 10.1501884,16.095495 Z" id="Stroke-5"></path>
                <path d="M8.38611836,5.44853831 C8.2238265,5.28604359 7.79588876,5.32755788 7.44640357,5.67668314 C7.09655121,6.02689543 7.05503693,6.45483317 7.21797345,6.61756655 C7.38126203,6.78085513 7.80850152,6.73949158 8.15849322,6.38949989 C8.50848491,6.03950819 8.54984846,5.61226869 8.38611836,5.44853831 Z M5.80420169,8.03222164 C4.79223033,7.02151366 4.95530979,5.34045732 6.0321902,4.26246976 C7.10945066,3.18631645 8.790507,3.02323699 9.80077345,4.03476655 C10.812368,5.04636112 10.6496808,6.72673945 9.57270678,7.80371345 C8.49573278,8.88068745 6.81535445,9.04337468 5.80420169,8.03222164 Z" id="Stroke-7"></path>
                <path d="M14.3212923,8.30450532 L5.21182563,9.76237199 C4.66648051,9.84964828 4.29514236,10.3624893 4.38241865,10.9078344 C4.46969495,11.4531795 4.98253592,11.8245176 5.52788104,11.7372413 L14.6373477,10.2793747 C15.1826928,10.1920984 15.554031,9.67925741 15.4667547,9.1339123 C15.3794784,8.58856718 14.8666374,8.21722903 14.3212923,8.30450532 Z" id="Stroke-9"></path>
            </g>
        </g>
    </g>
</svg>