<svg xmlns="http://www.w3.org/2000/svg" width="34" height="34" viewBox="0 0 32 32">
    <g fill="none" fill-rule="evenodd">
        <circle cx="15.986" cy="16.014" r="15.986" fill="#232222" fill-opacity=".137"/>
        <g fill="#FFF" fill-rule="nonzero">
            <path d="M15.756 20.038h-7.34a.85.85 0 0 0 0 1.7h7.34a.85.85 0 1 0 0-1.7zM22.455 20.038h-3.46a.85.85 0 0 0 0 1.7h3.46a.85.85 0 1 0 0-1.7z"/>
            <path d="M17.375 21.808a.769.769 0 1 0 0-1.538.769.769 0 0 0 0 1.538zm0 1.7a2.469 2.469 0 1 1 0-4.938 2.469 2.469 0 0 1 0 4.938zM19.863 10.9a.769.769 0 1 0 0-1.537.769.769 0 0 0 0 1.538zm0 1.701a2.469 2.469 0 1 1 0-4.938 2.469 2.469 0 0 1 0 4.938zM12.214 16.341a.769.769 0 1 0 0-1.537.769.769 0 0 0 0 1.537zm0 1.7a2.469 2.469 0 1 1 0-4.937 2.469 2.469 0 0 1 0 4.938z"/>
            <path d="M18.244 9.23H8.416a.85.85 0 1 0 0 1.7h9.828a.85.85 0 0 0 0-1.7zM22.455 9.23h-.973a.85.85 0 1 0 0 1.7h.973a.85.85 0 0 0 0-1.7zM10.595 14.33h-2.18a.85.85 0 0 0 0 1.7h2.18a.85.85 0 0 0 0-1.7zM22.455 14.33h-8.622a.85.85 0 1 0 0 1.7h8.622a.85.85 0 0 0 0-1.7z"/>
        </g>
    </g>
</svg>
