<svg xmlns="http://www.w3.org/2000/svg" width="11" height="14" viewBox="0 0 11 14">
    <path fill="#FF003E" fill-rule="nonzero" d="M3.794 12.168A2.729 2.729 0 0 1 5.3 10.65c.084-.033.17.033.152.133-.338 1.2.203 2.467 1.304 3.084C8.908 13.234 10.5 11.25 10.5 8.9c0-.8-.559-1.867-1.321-3.1-.034-.067-.135-.033-.135.033-.051.767-.492 2.717-1.186 2.2-.05-.033-.068-.1-.068-.166l.034-.15c.339-1.667-.847-2.834-1.693-4.334-.678-1.216-.153-2.75.067-3.3.017-.05-.05-.116-.101-.066C3.252 2.068 2.76 3.468 2.896 4.4c.135.883.847 1.467.677 2.5-.084.567-.423 1.05-.796 1.417-.033.033-.118.05-.169.05-.627-.15-1.1-1.45-1.287-2.134-.034-.15-.237-.166-.305-.033C.423 7.234 0 8.218 0 8.901c0 2.317 1.558 4.283 3.692 4.933a2.691 2.691 0 0 1 .102-1.666z"/>
</svg>
