<?xml version="1.0" encoding="UTF-8"?>
<svg width="13px" height="14px" viewBox="0 0 13 14" version="1.1" xmlns="http://www.w3.org/2000/svg" xmlns:xlink="http://www.w3.org/1999/xlink">
    <!-- Generator: Sketch 45.2 (43514) - http://www.bohemiancoding.com/sketch -->
    <title>Group 4</title>
    <desc>Created with Sketch.</desc>
    <defs></defs>
    <g id="Loyalty-App" stroke="none" stroke-width="1" fill="none" fill-rule="evenodd">
        <g id="hm_cart" transform="translate(-340.000000, -150.000000)" fill="#CFD8DC">
            <g id="Group-5" transform="translate(15.000000, 107.000000)">
                <g id="Group-4" transform="translate(324.000000, 43.000000)">
                    <path d="M5.84727373,5.83618014 L2.11963676,5.83618014 C1.50763666,5.83618014 0.979091114,6.36472569 0.979091114,6.97672579 C0.979091114,7.58872589 1.50763666,8.11727143 2.11963676,8.11727143 L5.84727373,8.11727143 L5.84727373,12.1230903 C5.84727373,12.8185449 6.43145564,13.4027268 7.1269103,13.4027268 C7.82236496,13.4027268 8.40654688,12.8185449 8.40654688,12.1230903 L8.40654688,8.11727143 L12.1341839,8.11727143 C12.746184,8.11727143 13.2747295,7.58872589 13.2747295,6.97672579 C13.2747295,6.36472569 12.746184,5.83618014 12.1341839,5.83618014 L8.40654688,5.83618014 L8.40654688,1.83036131 C8.40654688,1.13490665 7.82236496,0.550724733 7.1269103,0.550724733 C6.43145564,0.550724733 5.84727373,1.13490665 5.84727373,1.83036131 L5.84727373,5.83618014 Z" id="+"></path>
                </g>
            </g>
        </g>
    </g>
</svg>