<?xml version="1.0" encoding="UTF-8"?>
<svg width="16px" height="16px" viewBox="0 0 13 12" version="1.1" xmlns="http://www.w3.org/2000/svg" xmlns:xlink="http://www.w3.org/1999/xlink">
    <!-- Generator: Sketch 45.2 (43514) - http://www.bohemiancoding.com/sketch -->
    <title>Fill 1</title>
    <desc>Created with Sketch.</desc>
    <defs></defs>
    <g id="Loyalty-App" stroke="none" stroke-width="1" fill="none" fill-rule="evenodd">
        <g id="hm_product_2" transform="translate(-56.000000, -383.000000)" fill="#F8CD1C">
            <g id="Group-3" transform="translate(24.000000, 383.000000)">
                <path d="M41.982927,11.9962241 C42.2350957,11.9638423 42.4145235,11.7234976 42.3833488,11.4594062 C42.382656,11.4524501 41.7933387,7.70288021 41.7933387,7.70288021 L44.3637505,5.0408583 C44.5443328,4.85376358 44.5454875,4.54889515 44.3667525,4.35988152 C44.2974754,4.28672269 44.207877,4.23874969 44.1106581,4.2229186 L40.532957,3.65084054 L38.9111798,0.265385742 C38.7968726,0.0276795137 38.520226,-0.0680266267 38.293228,0.05142615 C38.2050151,0.0979599626 38.1334288,0.172797847 38.0888605,0.265385742 L36.4670833,3.65084054 L32.8893822,4.2229186 C32.6381372,4.26393552 32.46633,4.51003702 32.505587,4.77292907 C32.520597,4.87463184 32.5665508,4.96841906 32.6362898,5.0408583 L35.2067016,7.70288021 L34.6194626,11.4382981 C34.5772036,11.7007104 34.7462398,11.9489707 34.996792,11.9933457 C35.0963201,12.0108559 35.1986193,11.9935856 35.2879868,11.9441734 L38.4999047,10.2041926 L41.7120535,11.9441734 C41.7951861,11.9902275 41.8896339,12.0082173 41.982927,11.9962241 Z" id="Fill-1"></path>
            </g>
        </g>
    </g>
</svg>