<?xml version="1.0" encoding="UTF-8"?>
<svg width="19px" height="24px" viewBox="0 0 19 24" version="1.1" xmlns="http://www.w3.org/2000/svg" xmlns:xlink="http://www.w3.org/1999/xlink">
    <!-- Generator: Sketch 45.2 (43514) - http://www.bohemiancoding.com/sketch -->
    <title>task</title>
    <desc>Created with Sketch.</desc>
    <defs></defs>
    <g id="Loyalty-App" stroke="none" stroke-width="1" fill="none" fill-rule="evenodd">
        <g id="Artboard-3" transform="translate(-27.000000, -258.000000)" fill-rule="nonzero" fill="#FFFFFF">
            <g id="task" transform="translate(28.000000, 259.000000)">
                <path d="M17.6632455,2.89995455 L17.6632455,19.2346364 C17.6632455,21.0379666 16.201712,22.4995 14.3983818,22.4995 L2.65060909,22.4995 C0.847879372,22.4995 -0.613481818,21.0377943 -0.613481818,19.2346364 L-0.613481818,2.89995455 C-0.613481818,1.09739707 0.848051614,-0.364136364 2.65060909,-0.364136364 L14.3983818,-0.364136364 C16.2015398,-0.364136364 17.6632455,1.09722483 17.6632455,2.89995455 Z M15.6632455,2.89995455 C15.6632455,2.20189987 15.0970758,1.63586364 14.3983818,1.63586364 L2.65060909,1.63586364 C1.95262111,1.63586364 1.38651818,2.20196657 1.38651818,2.89995455 L1.38651818,19.2346364 C1.38651818,19.9333303 1.95255442,20.4995 2.65060909,20.4995 L14.3983818,20.4995 C15.0971425,20.4995 15.6632455,19.9333971 15.6632455,19.2346364 L15.6632455,2.89995455 Z" id="Stroke-1"></path>
                <path d="M9.770407,15.070564 L12.7502967,8.76568857 C12.9862933,8.26636498 12.7728247,7.67027019 12.2735011,7.43427357 C11.7741775,7.19827696 11.1780827,7.41174565 10.9420861,7.91106924 L7.96219634,14.2159446 C7.72619973,14.7152682 7.93966842,15.311363 8.43899201,15.5473596 C8.9383156,15.7833563 9.53441039,15.5698876 9.770407,15.070564 Z" id="Stroke-7"></path>
                <path d="M9.22043865,13.7852762 L7.15479191,10.4644884 C6.86308209,9.99552805 6.24643706,9.8518381 5.7774767,10.1435479 C5.30851633,10.4352578 5.16482638,11.0519028 5.45653621,11.5208631 L7.52218295,14.841651 C7.81389278,15.3106113 8.4305378,15.4543013 8.89949817,15.1625915 C9.36845853,14.8708816 9.51214848,14.2542366 9.22043865,13.7852762 Z" id="Stroke-7"></path>
            </g>
        </g>
    </g>
</svg>