<?xml version="1.0" encoding="UTF-8"?>
<svg width="32px" height="32px" viewBox="0 0 32 32" version="1.1" xmlns="http://www.w3.org/2000/svg" xmlns:xlink="http://www.w3.org/1999/xlink">
    <!-- Generator: Sketch 45.2 (43514) - http://www.bohemiancoding.com/sketch -->
    <title>vk</title>
    <desc>Created with Sketch.</desc>
    <defs></defs>
    <g id="Loyalty-App" stroke="none" stroke-width="1" fill="none" fill-rule="evenodd">
        <g id="Menu-#1" transform="translate(-93.000000, -563.000000)">
            <g id="vk" transform="translate(93.000000, 563.000000)">
                <circle id="Oval-3" fill="#FFFFFF" cx="18" cy="17" r="12"></circle>
                <path d="M31.7681159,15.884058 C31.7681159,24.6566957 24.6566957,31.7681159 15.884058,31.7681159 C7.11142029,31.7681159 0,24.6566957 0,15.884058 C0,7.11142029 7.11142029,0 15.884058,0 C24.6566957,0 31.7681159,7.11142029 31.7681159,15.884058 Z M23.0669431,21.5647537 C23.0669431,21.5647537 24.2426345,21.4916321 23.6853432,20.5671658 C23.639381,20.4914327 23.3604743,19.8829563 22.0129471,18.6330988 C20.6037889,17.3242216 20.7923382,17.5362744 22.4913715,15.2726377 C23.5249979,13.894295 23.9381351,13.052874 23.80965,12.6924888 C23.6863878,12.3488172 22.9254006,12.4396969 22.9254006,12.4396969 L20.3943476,12.4553658 C20.3943476,12.4553658 20.2063206,12.4302955 20.0673895,12.5133408 C19.9310699,12.5948192 19.843324,12.7844131 19.843324,12.7844131 C19.843324,12.7844131 19.4432442,13.8514666 18.908934,14.7586971 C17.7818163,16.6729168 17.3310737,16.7737202 17.1461805,16.6551587 C16.7178967,16.3778188 16.8249676,15.5421431 16.8249676,14.948291 C16.8249676,13.0936132 17.1059636,12.3206131 16.2770777,12.1195286 C16.001827,12.0531969 15.7996979,12.0093239 15.0956411,12.0020117 C14.1920667,11.9931327 13.4279457,12.0051455 12.9949612,12.2177205 C12.7071754,12.3582185 12.4846767,12.6726415 12.6199517,12.6903996 C12.7876092,12.7128584 13.166797,12.7927699 13.3673592,13.0664537 C13.626941,13.4190044 13.6175396,14.2113295 13.6175396,14.2113295 C13.6175396,14.2113295 13.7663944,16.3950547 13.2691673,16.666127 C12.9286294,16.8525871 12.4601287,16.4723547 11.4557509,14.7362383 C10.9402435,13.8467659 10.5521765,12.86328 10.5521765,12.86328 C10.5521765,12.86328 10.4769657,12.6794314 10.3432576,12.5812395 C10.1808231,12.4621557 9.95414609,12.4245503 9.95414609,12.4245503 L7.54896683,12.4396969 C7.54896683,12.4396969 7.18753707,12.4501428 7.05539584,12.6073543 C6.93683434,12.7468077 7.04547219,13.0356382 7.04547219,13.0356382 C7.04547219,13.0356382 8.9288764,17.4412162 11.0614165,19.6620245 C13.0168977,21.6979396 15.2371837,21.5647537 15.2371837,21.5647537 L16.2436507,21.5647537 C16.2436507,21.5647537 16.5476277,21.5313267 16.7022277,21.3636693 C16.8453372,21.2095916 16.8406365,20.9218057 16.8406365,20.9218057 C16.8406365,20.9218057 16.8213115,19.5716671 17.447546,19.3726718 C18.0654238,19.1768103 18.8587935,20.6778929 19.6996922,21.2545091 C20.3353281,21.6911497 20.8184531,21.5960916 20.8184531,21.5960916 L23.0669431,21.5647537 Z" id="icon_vk_hover" fill="#4C75A3"></path>
            </g>
        </g>
    </g>
</svg>