<svg width="41px" height="40px" viewBox="0 0 41 40" version="1.1" xmlns="http://www.w3.org/2000/svg" xmlns:xlink="http://www.w3.org/1999/xlink">
    <!-- Generator: Sketch 45.2 (43514) - http://www.bohemiancoding.com/sketch -->
    <desc>Created with Sketch.</desc>
    <defs></defs>
    <g id="Loyalty-App" stroke="none" stroke-width="1" fill="none" fill-rule="evenodd">
        <g id="hm_category" transform="translate(-320.000000, -372.000000)">
            <g id="red_cart" transform="translate(320.000000, 372.000000)">
                <g id="Group" fill="#FF003E">
                    <rect id="Rectangle-18" x="0.708841463" y="0" width="40" height="40" rx="20"></rect>
                </g>
                <g id="Group-6" transform="translate(11.731707, 11.000000)" fill-rule="nonzero" fill="#FFFFFF">
                    <path d="M1.4299936,1 C2.16311528,9.46941548 3.38840288,13.5006664 5.8908956,13.4165179 C7.54575,13.360872 11.1822414,13.360872 16.7823842,13.4170325 C17.3346412,13.4225708 17.7868236,12.9793677 17.7923619,12.4271107 C17.7979001,11.8748537 17.354697,11.4226713 16.80244,11.4171331 C11.1718226,11.360667 7.51823163,11.360667 5.82368186,11.4176477 C5.06578837,11.4431325 3.94971412,7.491326 3.34728929,-0.0793229977 C3.30592048,-0.599203176 2.87196384,-1 2.35044032,-1 L3.55271368e-15,-1 C-0.55228475,-1 -1,-0.55228475 -1,0 C-1,0.55228475 -0.55228475,1 3.55271368e-15,1 L1.4299936,1 Z" id="Path-2"></path>
                    <path d="M15.3547145,3.24376731 C15.1616742,6.81617528 13.7248529,8.40925137 10.933342,8.40925137 C7.44616019,8.40925137 5.14736458,8.06130343 4.1312472,7.44590951 C3.65884491,7.15980723 3.04395545,7.31083323 2.75785317,7.78323553 C2.47175089,8.25563782 2.6227769,8.87052727 3.09517919,9.15662955 C4.51834409,10.0185448 7.09963433,10.4092514 10.933342,10.4092514 C15.2161072,10.4092514 17.4115811,7.51924901 17.3767876,2.23718036 L17.3702439,1.24376731 L2.62684954,1.24376731 C2.07456479,1.24376731 1.62684954,1.69148256 1.62684954,2.24376731 C1.62684954,2.79605206 2.07456479,3.24376731 2.62684954,3.24376731 L15.3547145,3.24376731 Z" id="Path-8"></path>
                    <path d="M5.52743612,20.5583909 C4.09298422,20.5583909 2.94027431,19.3768632 2.94027431,17.93155 C2.94027431,16.4862368 4.09298422,15.3047091 5.52743612,15.3047091 C6.96188802,15.3047091 8.11459794,16.4862368 8.11459794,17.93155 C8.11459794,19.3768632 6.96188802,20.5583909 5.52743612,20.5583909 Z M5.52743612,18.5583909 C5.84611475,18.5583909 6.11459794,18.2831956 6.11459794,17.93155 C6.11459794,17.5799044 5.84611475,17.3047091 5.52743612,17.3047091 C5.20875749,17.3047091 4.94027431,17.5799044 4.94027431,17.93155 C4.94027431,18.2831956 5.20875749,18.5583909 5.52743612,18.5583909 Z" id="Oval-5"></path>
                    <path d="M13.845793,20.5583909 C12.4113411,20.5583909 11.2586312,19.3768632 11.2586312,17.93155 C11.2586312,16.4862368 12.4113411,15.3047091 13.845793,15.3047091 C15.2802449,15.3047091 16.4329548,16.4862368 16.4329548,17.93155 C16.4329548,19.3768632 15.2802449,20.5583909 13.845793,20.5583909 Z M13.845793,18.5583909 C14.1644716,18.5583909 14.4329548,18.2831956 14.4329548,17.93155 C14.4329548,17.5799044 14.1644716,17.3047091 13.845793,17.3047091 C13.5271144,17.3047091 13.2586312,17.5799044 13.2586312,17.93155 C13.2586312,18.2831956 13.5271144,18.5583909 13.845793,18.5583909 Z" id="Oval-5-Copy"></path>
                </g>
            </g>
        </g>
    </g>
</svg>