<?xml version="1.0" encoding="UTF-8"?>
<svg width="20px" height="22px" viewBox="0 0 20 22" version="1.1" xmlns="http://www.w3.org/2000/svg" xmlns:xlink="http://www.w3.org/1999/xlink">
    <!-- Generator: Sketch 45.2 (43514) - http://www.bohemiancoding.com/sketch -->
    <title>white_cart</title>
    <desc>Created with Sketch.</desc>
    <defs></defs>
    <g id="Loyalty-App" stroke="none" stroke-width="1" fill="none" fill-rule="evenodd">
        <g id="hm_product_2" transform="translate(-229.000000, -560.000000)" fill-rule="nonzero" fill="#FFFFFF">
            <g id="Group-10" transform="translate(16.000000, 551.000000)">
                <g id="Group" transform="translate(193.000000, 0.000000)">
                    <g id="white_cart" transform="translate(21.000000, 10.000000)">
                        <path d="M1.49067062,1 C2.24104461,9.45437656 3.5000401,13.4997558 6.03650903,13.4165451 C7.73371429,13.3608671 11.4615405,13.3608671 17.2024391,13.417035 C17.7546974,13.4224381 18.2067714,12.9791245 18.2121746,12.4268662 C18.2175778,11.8746078 17.7742641,11.4225339 17.2220058,11.4171307 C11.451375,11.3606719 7.70686688,11.3606719 5.97093287,11.4176205 C5.16446471,11.4440773 4.02484111,7.50730623 3.40589157,-0.0812931261 C3.36355703,-0.600333549 2.92996536,-1 2.40920133,-1 L3.55271368e-15,-1 C-0.55228475,-1 -1,-0.55228475 -1,-2.22044605e-16 C-1,0.55228475 -0.55228475,1 3.55271368e-15,1 L1.49067062,1 Z" id="Path-2"></path>
                        <path d="M11.2066755,8.40925137 C7.62479649,8.40925137 5.26144261,8.06025669 4.21224226,7.44032494 C3.73675569,7.15937838 3.12354549,7.31708422 2.84259893,7.7925708 C2.56165238,8.26805737 2.71935822,8.88126757 3.19484479,9.16221413 C4.64590877,10.0195915 7.28464289,10.4092514 11.2066755,10.4092514 C15.5742755,10.4092514 17.821895,7.52276945 17.7862067,2.23701569 L17.7795005,1.24376731 L2.69252078,1.24376731 C2.14023603,1.24376731 1.69252078,1.69148256 1.69252078,2.24376731 C1.69252078,2.79605206 2.14023603,3.24376731 2.69252078,3.24376731 L15.7634811,3.24376731 C15.5649539,6.81338082 14.0882434,8.40925137 11.2066755,8.40925137 Z" id="Path-8"></path>
                        <path d="M5.66562202,20.5583909 C4.21485788,20.5583909 3.03878116,19.3823141 3.03878116,17.93155 C3.03878116,16.4807859 4.21485788,15.3047091 5.66562202,15.3047091 C7.11638617,15.3047091 8.29246289,16.4807859 8.29246289,17.93155 C8.29246289,19.3823141 7.11638617,20.5583909 5.66562202,20.5583909 Z M5.66562202,18.5583909 C6.01181667,18.5583909 6.29246289,18.2777447 6.29246289,17.93155 C6.29246289,17.5853554 6.01181667,17.3047091 5.66562202,17.3047091 C5.31942738,17.3047091 5.03878116,17.5853554 5.03878116,17.93155 C5.03878116,18.2777447 5.31942738,18.5583909 5.66562202,18.5583909 Z" id="Oval-5"></path>
                        <path d="M14.1919378,20.5583909 C12.7411737,20.5583909 11.565097,19.3823141 11.565097,17.93155 C11.565097,16.4807859 12.7411737,15.3047091 14.1919378,15.3047091 C15.642702,15.3047091 16.8187787,16.4807859 16.8187787,17.93155 C16.8187787,19.3823141 15.642702,20.5583909 14.1919378,20.5583909 Z M14.1919378,18.5583909 C14.5381325,18.5583909 14.8187787,18.2777447 14.8187787,17.93155 C14.8187787,17.5853554 14.5381325,17.3047091 14.1919378,17.3047091 C13.8457432,17.3047091 13.565097,17.5853554 13.565097,17.93155 C13.565097,18.2777447 13.8457432,18.5583909 14.1919378,18.5583909 Z" id="Oval-5-Copy"></path>
                    </g>
                </g>
            </g>
        </g>
    </g>
</svg>