<?xml version="1.0" encoding="UTF-8"?>
<svg width="130px" height="130px" viewBox="0 0 130 130" version="1.1" xmlns="http://www.w3.org/2000/svg" xmlns:xlink="http://www.w3.org/1999/xlink">
    <!-- Generator: Sketch 45.2 (43514) - http://www.bohemiancoding.com/sketch -->
    <title>zakaz_succes</title>
    <desc>Created with Sketch.</desc>
    <defs></defs>
    <g id="Loyalty-App" stroke="none" stroke-width="1" fill="none" fill-rule="evenodd">
        <g id="hm_cart_final" transform="translate(-123.000000, -175.000000)" fill-rule="nonzero">
            <g id="zakaz_succes" transform="translate(123.000000, 175.000000)">
                <g id="Group-4" transform="translate(32.500000, 27.000000)">
                    <path d="M4.40755774,22.8873783 L6.86282532,48.1528737 C8.19036013,61.8136352 19.672664,72.2341941 33.3977779,72.2341941 C47.1228918,72.2341941 58.6051957,61.8136352 59.9327305,48.1528737 L62.3879981,22.8873783 L4.40755774,22.8873783 Z M0,18.8873783 L66.7955558,18.8873783 L63.9139758,48.5397659 C62.3872606,64.2501576 49.1821774,76.2341941 33.3977779,76.2341941 C17.6133784,76.2341941 4.40829517,64.2501576 2.88157998,48.5397659 L0,18.8873783 Z" id="Rectangle-5-Copy" fill="#FFFFFF"></path>
                    <path d="M21.2577467,30.7597766 L21.2577467,18.2988372 C21.2577467,10.156047 25.7469731,3.26563913 31.5051799,3.26563913 L34.7828642,3.26563913 C40.541071,3.26563913 45.0302973,10.156047 45.0302973,18.2988372 L45.0302973,30.7597766 L46.2959365,30.7597766 L46.2959365,18.2988372 C46.2959365,9.17163907 41.0987265,2 34.7828642,2 L31.5051799,2 C25.1893175,2 19.9921076,9.17163907 19.9921076,18.2988372 L19.9921076,30.7597766 L21.2577467,30.7597766 Z" id="Rectangle-6-Copy" stroke="#FFFFFF" stroke-width="4"></path>
                </g>
                <path d="M65,124.901961 C98.0829394,124.901961 124.901961,98.0829394 124.901961,65 C124.901961,31.9170606 98.0829394,5.09803922 65,5.09803922 C31.9170606,5.09803922 5.09803922,31.9170606 5.09803922,65 C5.09803922,98.0829394 31.9170606,124.901961 65,124.901961 Z M65,130 C29.1014913,130 0,100.898509 0,65 C0,29.1014913 29.1014913,0 65,0 C100.898509,0 130,29.1014913 130,65 C130,100.898509 100.898509,130 65,130 Z" id="Oval" fill="#FF003E"></path>
            </g>
        </g>
    </g>
</svg>